<svg width="65" height="23" viewBox="0 0 65 23" fill="none" xmlns="http://www.w3.org/2000/svg">
<rect width="65" height="23" rx="11.5" fill="#ECFDF3"/>
<circle cx="10" cy="11.5" r="3" fill="#12B76A"/>
<path d="M22.0304 16H20.3429L23.4153 7.27273H25.367L28.4437 16H26.7562L24.4252 9.0625H24.3571L22.0304 16ZM22.0858 12.5781H26.688V13.848H22.0858V12.5781ZM32.1809 16.1278C31.5275 16.1278 30.9664 15.9844 30.4977 15.6974C30.0318 15.4105 29.6724 15.0142 29.4196 14.5085C29.1696 14 29.0446 13.4148 29.0446 12.7528C29.0446 12.0881 29.1724 11.5014 29.4281 10.9929C29.6838 10.4815 30.0446 10.0838 30.5105 9.79972C30.9792 9.51278 31.5332 9.36932 32.1724 9.36932C32.7037 9.36932 33.1738 9.46733 33.5829 9.66335C33.9949 9.85653 34.323 10.1307 34.5673 10.4858C34.8116 10.8381 34.9508 11.25 34.9849 11.7216H33.5105C33.4508 11.4062 33.3088 11.1435 33.0843 10.9332C32.8627 10.7202 32.5659 10.6136 32.1937 10.6136C31.8784 10.6136 31.6014 10.6989 31.3627 10.8693C31.1241 11.0369 30.938 11.2784 30.8045 11.5938C30.6738 11.9091 30.6085 12.2869 30.6085 12.7273C30.6085 13.1733 30.6738 13.5568 30.8045 13.8778C30.9352 14.196 31.1184 14.4418 31.3542 14.6151C31.5929 14.7855 31.8727 14.8707 32.1937 14.8707C32.421 14.8707 32.6241 14.8281 32.8031 14.7429C32.9849 14.6548 33.1369 14.5284 33.2591 14.3636C33.3812 14.1989 33.465 13.9986 33.5105 13.7628H34.9849C34.948 14.2259 34.8116 14.6364 34.5758 14.9943C34.34 15.3494 34.019 15.6278 33.6127 15.8295C33.2065 16.0284 32.7292 16.1278 32.1809 16.1278ZM39.5201 9.45455V10.6477H35.7573V9.45455H39.5201ZM36.6863 7.88636H38.2289V14.0312C38.2289 14.2386 38.2601 14.3977 38.3226 14.5085C38.388 14.6165 38.4732 14.6903 38.5783 14.7301C38.6834 14.7699 38.7999 14.7898 38.9277 14.7898C39.0243 14.7898 39.1124 14.7827 39.1919 14.7685C39.2743 14.7543 39.3368 14.7415 39.3794 14.7301L39.6394 15.9361C39.557 15.9645 39.4391 15.9957 39.2857 16.0298C39.1351 16.0639 38.9505 16.0838 38.7317 16.0895C38.3453 16.1009 37.9973 16.0426 37.6877 15.9148C37.378 15.7841 37.1323 15.5824 36.9505 15.3097C36.7715 15.0369 36.6834 14.696 36.6863 14.2869V7.88636ZM40.8102 16V9.45455H42.3528V16H40.8102ZM41.5858 8.52557C41.3414 8.52557 41.1312 8.4446 40.9551 8.28267C40.7789 8.1179 40.6909 7.92045 40.6909 7.69034C40.6909 7.45739 40.7789 7.25994 40.9551 7.09801C41.1312 6.93324 41.3414 6.85085 41.5858 6.85085C41.8329 6.85085 42.0431 6.93324 42.2164 7.09801C42.3926 7.25994 42.4806 7.45739 42.4806 7.69034C42.4806 7.92045 42.3926 8.1179 42.2164 8.28267C42.0431 8.4446 41.8329 8.52557 41.5858 8.52557ZM49.7857 9.45455L47.4547 16H45.7502L43.4192 9.45455H45.0641L46.5684 14.3168H46.6365L48.1451 9.45455H49.7857ZM53.5282 16.1278C52.872 16.1278 52.3052 15.9915 51.8279 15.7188C51.3535 15.4432 50.9885 15.054 50.7328 14.5511C50.4771 14.0455 50.3493 13.4503 50.3493 12.7656C50.3493 12.0923 50.4771 11.5014 50.7328 10.9929C50.9913 10.4815 51.3521 10.0838 51.8152 9.79972C52.2782 9.51278 52.8223 9.36932 53.4473 9.36932C53.8507 9.36932 54.2314 9.43466 54.5893 9.56534C54.9501 9.69318 55.2683 9.89205 55.5439 10.1619C55.8223 10.4318 56.041 10.7756 56.2001 11.1932C56.3592 11.608 56.4387 12.1023 56.4387 12.6761V13.1491H51.0737V12.1094H54.96C54.9572 11.8139 54.8933 11.5511 54.7683 11.321C54.6433 11.0881 54.4686 10.9048 54.2441 10.7713C54.0225 10.6378 53.764 10.571 53.4686 10.571C53.1532 10.571 52.8762 10.6477 52.6376 10.8011C52.399 10.9517 52.2129 11.1506 52.0794 11.3977C51.9487 11.642 51.8819 11.9105 51.8791 12.2031V13.1108C51.8791 13.4915 51.9487 13.8182 52.0879 14.0909C52.2271 14.3608 52.4217 14.5682 52.6717 14.7131C52.9217 14.8551 53.2143 14.9261 53.5495 14.9261C53.774 14.9261 53.9771 14.8949 54.1589 14.8324C54.3407 14.767 54.4984 14.6719 54.6319 14.5469C54.7654 14.4219 54.8663 14.267 54.9345 14.0824L56.3748 14.2443C56.2839 14.625 56.1106 14.9574 55.8549 15.2415C55.6021 15.5227 55.2782 15.7415 54.8833 15.8977C54.4885 16.0511 54.0368 16.1278 53.5282 16.1278Z" fill="#027A48"/>
</svg>
