<svg width="30" height="30" viewBox="0 0 30 30" fill="none" xmlns="http://www.w3.org/2000/svg">
<path opacity="0.4" d="M15 27.5002C8.10625 27.5002 2.5 21.8927 2.5 15.0002C2.5 8.10774 8.10625 2.50024 15 2.50024C21.8925 2.50024 27.5 8.10774 27.5 15.0002C27.5 21.8927 21.8925 27.5002 15 27.5002Z" fill="#EBECEF"/>
<path d="M16.803 20.2761C16.5643 20.2761 16.3243 20.1849 16.1418 20.0024L11.783 15.6649C11.6068 15.4886 11.508 15.2499 11.508 14.9999C11.508 14.7511 11.6068 14.5124 11.783 14.3361L16.1418 9.99613C16.508 9.63113 17.1005 9.63113 17.4668 9.99863C17.8318 10.3661 17.8305 10.9599 17.4643 11.3249L13.773 14.9999L17.4643 18.6749C17.8305 19.0399 17.8318 19.6324 17.4668 19.9999C17.2843 20.1849 17.043 20.2761 16.803 20.2761Z" fill="black"/>
</svg>
