<svg width="419" height="222" viewBox="0 0 419 222" fill="none" xmlns="http://www.w3.org/2000/svg">
<path d="M206.851 221.192C151.298 221.192 96.1044 209.641 55.6018 186.771C18.9931 166.097 -0.695109 139.006 0.163314 110.488C0.610478 95.5722 6.58682 81.1128 17.9258 67.4759C29.5945 53.4572 46.4072 41.0377 67.8972 30.518C152.516 -10.8365 284.703 -8.70838 362.565 35.2638C399.174 55.9345 418.865 83.0255 418.007 111.546C417.56 126.462 411.583 140.922 400.244 154.559C388.576 168.594 371.763 181.013 350.273 191.516C309.666 211.358 258.105 221.189 206.851 221.192ZM211.349 2.59473C160.186 2.59473 108.723 12.4095 68.1811 32.2218C46.8805 42.6338 30.2408 54.9259 18.7288 68.7782C7.67697 82.056 1.85079 96.1205 1.42974 110.557C0.597424 138.301 19.9626 164.781 55.9609 185.106C96.3492 207.918 151.416 219.436 206.835 219.44C257.997 219.44 309.46 209.625 350.002 189.809C371.303 179.401 387.942 167.109 399.454 153.273C410.506 139.991 416.332 125.93 416.753 111.477C417.586 83.7337 398.221 57.2531 362.222 36.9251C321.837 14.1165 266.767 2.59473 211.349 2.59473Z" fill="#344054"/>
</svg>
