<svg width="711" height="426" viewBox="0 0 711 426" fill="none" xmlns="http://www.w3.org/2000/svg">
<path d="M398.778 425.554C291.606 425.554 185.132 403.274 107.002 359.155C36.3798 319.272 -1.60295 267.013 0.0518795 211.996C0.916831 183.22 12.455 155.304 34.3235 129.019C56.8449 101.974 89.2626 77.9868 130.725 57.7274C293.959 -22.0473 548.963 -17.9445 699.171 66.8665C769.79 106.746 807.773 159.008 806.121 214.026C805.256 242.798 793.718 270.718 771.85 296.999C749.328 324.044 716.907 348.031 675.448 368.294C597.11 406.593 497.65 425.554 398.778 425.554ZM407.473 3.46718C308.575 3.46718 209.125 22.4341 130.771 60.727C89.5858 80.8493 57.4292 104.611 35.1754 131.346C13.816 157.014 2.56187 184.193 1.71976 212.129C0.110626 265.753 37.5353 316.926 107.11 356.214C185.174 400.297 291.599 422.561 398.71 422.564C497.592 422.564 597.058 403.597 675.412 365.304C716.584 345.185 748.741 321.423 770.991 294.685C792.354 269.02 803.608 241.841 804.45 213.905C806.059 160.278 768.631 109.109 699.057 69.8204C620.992 25.7372 514.571 3.46718 407.473 3.46718Z" fill="#344054"/>
</svg>
