<svg width="32" height="32" viewBox="0 0 32 32" fill="none" xmlns="http://www.w3.org/2000/svg">
<g clip-path="url(#clip0_758_11520)">
<rect width="32" height="32" fill="white"/>
<circle cx="16" cy="16" r="16" fill="#1D6EB9"/>
<path d="M18.75 5V10.5H24.25L18.75 5Z" fill="white"/>
<path d="M18.75 11.875C17.9924 11.875 17.375 11.2576 17.375 10.5V5H9.125C8.36738 5 7.75 5.61738 7.75 6.375V25.625C7.75 26.384 8.36738 27 9.125 27H22.875C23.634 27 24.25 26.384 24.25 25.625V11.875H18.75ZM12.5625 9.21025V8.4375C12.5625 8.058 12.8705 7.75 13.25 7.75C13.6295 7.75 13.9375 8.058 13.9375 8.4375V9.21163C14.3679 9.30925 14.7694 9.49075 15.1008 9.76025C15.3964 9.9995 15.4404 10.4326 15.1998 10.7269C14.9591 11.0225 14.526 11.0651 14.2331 10.8259C13.9733 10.6155 13.624 10.5 13.25 10.5C12.5047 10.5 11.875 10.9716 11.875 11.5312C11.875 12.0909 12.5047 12.5625 13.25 12.5625C14.7666 12.5625 16 13.6419 16 14.9688C16 16.0866 15.12 17.0202 13.9375 17.2897V18.0625C13.9375 18.442 13.6295 18.75 13.25 18.75C12.8705 18.75 12.5625 18.442 12.5625 18.0625V17.2884C12.1321 17.1908 11.7306 17.0092 11.3992 16.7397C11.1036 16.4991 11.0596 16.066 11.3002 15.7718C11.5409 15.4748 11.9726 15.4335 12.2669 15.6728C12.5267 15.8845 12.876 16 13.25 16C13.9953 16 14.625 15.5284 14.625 14.9688C14.625 14.4091 13.9953 13.9375 13.25 13.9375C11.7334 13.9375 10.5 12.8581 10.5 11.5312C10.5 10.4134 11.38 9.47975 12.5625 9.21025ZM20.8125 24.25H11.1875C10.808 24.25 10.5 23.942 10.5 23.5625C10.5 23.183 10.808 22.875 11.1875 22.875H20.8125C21.192 22.875 21.5 23.183 21.5 23.5625C21.5 23.942 21.192 24.25 20.8125 24.25ZM20.8125 21.5H11.1875C10.808 21.5 10.5 21.192 10.5 20.8125C10.5 20.433 10.808 20.125 11.1875 20.125H20.8125C21.192 20.125 21.5 20.433 21.5 20.8125C21.5 21.192 21.192 21.5 20.8125 21.5ZM20.8125 18.75H18.0625C17.683 18.75 17.375 18.442 17.375 18.0625C17.375 17.683 17.683 17.375 18.0625 17.375H20.8125C21.192 17.375 21.5 17.683 21.5 18.0625C21.5 18.442 21.192 18.75 20.8125 18.75ZM20.8125 16H18.0625C17.683 16 17.375 15.692 17.375 15.3125C17.375 14.933 17.683 14.625 18.0625 14.625H20.8125C21.192 14.625 21.5 14.9316 21.5 15.3125C21.5 15.692 21.192 16 20.8125 16Z" fill="white"/>
</g>
<defs>
<clipPath id="clip0_758_11520">
<rect width="32" height="32" fill="white"/>
</clipPath>
</defs>
</svg>
