<svg width="24" height="24" viewBox="0 0 24 24" fill="none" xmlns="http://www.w3.org/2000/svg">
<path fill-rule="evenodd" clip-rule="evenodd" d="M15.1936 9.65943L9.65832 15.1947L8.59766 14.1341L14.1329 8.59877L15.1936 9.65943Z" fill="white"/>
<path fill-rule="evenodd" clip-rule="evenodd" d="M13.3164 13.3215H14.8242V14.8215H13.3164V13.3215Z" fill="white"/>
<path fill-rule="evenodd" clip-rule="evenodd" d="M8.96484 8.96896H10.4727V10.469H8.96484V8.96896Z" fill="white"/>
<path fill-rule="evenodd" clip-rule="evenodd" d="M12.0001 1.50868L12.5977 2.29684C13.9645 4.09944 16.1976 5.02439 18.4387 4.71625L19.4186 4.58152L19.2838 5.56141C18.9757 7.80253 19.9007 10.0355 21.7033 11.4024L22.4914 12L21.7033 12.5976C19.9007 13.9644 18.9757 16.1975 19.2838 18.4386L19.4186 19.4185L18.4387 19.2837C16.1976 18.9756 13.9645 19.9005 12.5977 21.7031L12.0001 22.4913L11.4025 21.7031C10.0357 19.9005 7.80264 18.9756 5.56152 19.2837L4.58162 19.4185L4.71635 18.4386C5.02449 16.1975 4.09955 13.9644 2.29695 12.5976L1.50879 12L2.29695 11.4024C4.09955 10.0355 5.02449 7.80253 4.71635 5.56141L4.58162 4.58152L5.56152 4.71625C7.80264 5.02439 10.0357 4.09944 11.4025 2.29684L12.0001 1.50868ZM6.27355 6.27344C6.31296 8.42768 5.45267 10.5046 3.90153 12C5.45267 13.4954 6.31296 15.5723 6.27355 17.7265C8.42779 17.6871 10.5047 18.5474 12.0001 20.0986C13.4955 18.5474 15.5724 17.6871 17.7267 17.7265C17.6872 15.5723 18.5475 13.4954 20.0987 12C18.5475 10.5046 17.6872 8.42768 17.7267 6.27344C15.5724 6.31285 13.4955 5.45257 12.0001 3.90142C10.5047 5.45257 8.42779 6.31285 6.27355 6.27344Z" fill="white"/>
</svg>
