<svg width="50" height="50" viewBox="0 0 50 50" fill="none" xmlns="http://www.w3.org/2000/svg">
<path d="M25 0C38.8066 0 50 11.1934 50 25C50 38.8066 38.8066 50 25 50C11.1934 50 0 38.8066 0 25C0 11.1934 11.1934 0 25 0ZM20.0635 18.0723L16.9092 14.918C16.7793 14.7835 16.6239 14.6763 16.4521 14.6026C16.2803 14.5289 16.0955 14.4901 15.9086 14.4885C15.7217 14.4869 15.5363 14.5225 15.3633 14.5933C15.1902 14.6641 15.0331 14.7687 14.9009 14.9009C14.7687 15.0331 14.6641 15.1902 14.5933 15.3633C14.5225 15.5363 14.4869 15.7217 14.4885 15.9086C14.4901 16.0955 14.5289 16.2803 14.6026 16.4521C14.6763 16.6239 14.7835 16.7793 14.918 16.9092L18.0723 20.0635C18.3378 20.3201 18.6936 20.4622 19.0629 20.4591C19.4322 20.4559 19.7855 20.3078 20.0467 20.0467C20.3078 19.7855 20.4559 19.4322 20.4591 19.0629C20.4622 18.6936 20.3201 18.3378 20.0635 18.0723ZM39.2578 25C39.2578 24.6265 39.1094 24.2683 38.8454 24.0043C38.5813 23.7402 38.2231 23.5918 37.8496 23.5918H33.3896C33.0163 23.5921 32.6584 23.7405 32.3945 24.0046C32.1307 24.2687 31.9824 24.6267 31.9824 25C31.9824 25.3733 32.1307 25.7313 32.3945 25.9954C32.6584 26.2595 33.0163 26.4079 33.3896 26.4082H37.8496C38.2231 26.4082 38.5813 26.2598 38.8454 25.9957C39.1094 25.7317 39.2578 25.3735 39.2578 25ZM29.9365 31.9277L33.0908 35.082C33.2207 35.2165 33.3761 35.3237 33.5479 35.3974C33.7197 35.4711 33.9045 35.5099 34.0914 35.5115C34.2783 35.5131 34.4637 35.4775 34.6367 35.4067C34.8098 35.3359 34.9669 35.2313 35.0991 35.0991C35.2313 34.9669 35.3359 34.8098 35.4067 34.6367C35.4775 34.4637 35.5131 34.2783 35.5115 34.0914C35.5099 33.9045 35.4711 33.7197 35.3974 33.5479C35.3237 33.3761 35.2165 33.2207 35.082 33.0908L31.9277 29.9365C31.6622 29.6799 31.3064 29.5378 30.9371 29.5409C30.5678 29.5441 30.2145 29.6922 29.9533 29.9533C29.6922 30.2145 29.5441 30.5678 29.5409 30.9371C29.5378 31.3064 29.6799 31.6622 29.9365 31.9277ZM29.9365 20.0635C30.2009 20.327 30.5589 20.475 30.9321 20.475C31.3054 20.475 31.6634 20.327 31.9277 20.0635L35.082 16.9092C35.2165 16.7793 35.3237 16.6239 35.3974 16.4521C35.4711 16.2803 35.5099 16.0955 35.5115 15.9086C35.5131 15.7217 35.4775 15.5363 35.4067 15.3633C35.3359 15.1902 35.2313 15.0331 35.0991 14.9009C34.9669 14.7687 34.8098 14.6641 34.6367 14.5933C34.4637 14.5225 34.2783 14.4869 34.0914 14.4885C33.9045 14.4901 33.7197 14.5289 33.5479 14.6026C33.3761 14.6763 33.2207 14.7835 33.0908 14.918L29.9365 18.0723C29.673 18.3366 29.525 18.6946 29.525 19.0679C29.525 19.4411 29.673 19.7991 29.9365 20.0635ZM23.5889 37.8496C23.5889 38.2231 23.7372 38.5813 24.0013 38.8454C24.2654 39.1095 24.6236 39.2578 24.9971 39.2578C25.3705 39.2578 25.7287 39.1095 25.9928 38.8454C26.2569 38.5813 26.4053 38.2231 26.4053 37.8496V33.3896C26.4053 33.0162 26.2569 32.658 25.9928 32.3939C25.7287 32.1298 25.3705 31.9814 24.9971 31.9814C24.6236 31.9814 24.2654 32.1298 24.0013 32.3939C23.7372 32.658 23.5889 33.0162 23.5889 33.3896V37.8496ZM23.5889 16.6104C23.5889 16.9838 23.7372 17.342 24.0013 17.6061C24.2654 17.8702 24.6236 18.0186 24.9971 18.0186C25.3705 18.0186 25.7287 17.8702 25.9928 17.6061C26.2569 17.342 26.4053 16.9838 26.4053 16.6104V12.1504C26.4053 11.7769 26.2569 11.4187 25.9928 11.1546C25.7287 10.8906 25.3705 10.7422 24.9971 10.7422C24.6236 10.7422 24.2654 10.8906 24.0013 11.1546C23.7372 11.4187 23.5889 11.7769 23.5889 12.1504V16.6104ZM14.915 35.082C15.1791 35.346 15.5372 35.4943 15.9106 35.4943C16.284 35.4943 16.6422 35.346 16.9062 35.082L20.0605 31.9277C20.3172 31.6622 20.4593 31.3064 20.4561 30.9371C20.453 30.5678 20.3049 30.2145 20.0437 29.9533C19.7826 29.6922 19.4293 29.5441 19.06 29.5409C18.6907 29.5378 18.3349 29.6799 18.0693 29.9365L14.915 33.0908C14.6514 33.3553 14.5036 33.7136 14.5042 34.087C14.5047 34.4604 14.6536 34.8183 14.918 35.082H14.915ZM10.7422 25C10.7422 25.3735 10.8905 25.7317 11.1546 25.9957C11.4187 26.2598 11.7769 26.4082 12.1504 26.4082H16.6104C16.9837 26.4079 17.3416 26.2595 17.6055 25.9954C17.8694 25.7313 18.0176 25.3733 18.0176 25C18.0176 24.6267 17.8694 24.2687 17.6055 24.0046C17.3416 23.7405 16.9837 23.5921 16.6104 23.5918H12.1504C11.7769 23.5918 11.4187 23.7402 11.1546 24.0043C10.8905 24.2683 10.7422 24.6265 10.7422 25Z" fill="#1DB954"/>
</svg>
