<svg width="20" height="20" viewBox="0 0 20 20" fill="none" xmlns="http://www.w3.org/2000/svg">
<path d="M15.9535 8.59262L15.1715 9.0441C15.2407 9.38086 15.2736 9.69199 15.2736 10C15.2736 10.308 15.2407 10.6191 15.1715 10.9559L15.9535 11.4074C16.0881 11.4851 16.1863 11.6131 16.2265 11.7632C16.2667 11.9133 16.2457 12.0732 16.168 12.2078L14.9961 14.2375C14.8342 14.5178 14.476 14.6138 14.1957 14.452L13.4208 14.0046C12.9351 14.4166 12.3714 14.7386 11.758 14.9543V15.8594C11.758 16.183 11.4957 16.4453 11.1721 16.4453H8.82835C8.50475 16.4453 8.24241 16.183 8.24241 15.8594V14.9543C7.62905 14.7386 7.0653 14.4166 6.57964 14.0046L5.80475 14.452C5.52448 14.6139 5.16612 14.5178 5.00436 14.2375L3.83249 12.2078C3.75479 12.0732 3.73374 11.9133 3.77393 11.7632C3.81417 11.6131 3.91237 11.4851 4.04694 11.4074L4.82893 10.9559C4.75968 10.6191 4.72675 10.308 4.72675 10C4.72675 9.69199 4.75968 9.38086 4.82886 9.04406L4.04686 8.59258C3.91229 8.51488 3.81409 8.38688 3.77386 8.23684C3.73366 8.08672 3.75472 7.92676 3.83241 7.79219L5.00429 5.76246C5.16612 5.48215 5.52448 5.38613 5.80468 5.54801L6.57956 5.99539C7.06526 5.58336 7.62897 5.26137 8.24233 5.04566V4.14062C8.24233 3.81703 8.50468 3.55469 8.82827 3.55469H11.172C11.4956 3.55469 11.758 3.81703 11.758 4.14062V5.04566C12.3713 5.26137 12.9351 5.5834 13.4207 5.99539L14.1956 5.54801C14.4758 5.38617 14.8342 5.48223 14.996 5.76246L16.1679 7.79219C16.2456 7.92676 16.2666 8.08672 16.2264 8.23684C16.1862 8.38691 16.0881 8.51488 15.9535 8.59262ZM10.0002 8.24219C9.03093 8.24219 8.24237 9.03074 8.24237 10C8.24237 10.9693 9.03093 11.7578 10.0002 11.7578C10.9694 11.7578 11.758 10.9693 11.758 10C11.758 9.03074 10.9694 8.24219 10.0002 8.24219Z" fill="white"/>
<path d="M18.0136 15.9857L17.185 18.4717C17.0827 18.7787 16.7508 18.9446 16.4438 18.8423C16.1368 18.7399 15.9709 18.4081 16.0732 18.1011L16.1437 17.8898C15.6179 18.29 15.0513 18.6427 14.4548 18.9386C13.0549 19.633 11.5145 20 10 20C7.34336 20 4.83617 18.9559 2.9402 17.0598C1.04414 15.1638 0 12.6566 0 10C0 8.77305 0.257773 7.51605 0.766055 6.26394C0.858477 6.03629 1.07773 5.89828 1.30914 5.89828C1.38254 5.89828 1.45719 5.91215 1.52938 5.94144C1.82922 6.06316 1.97359 6.40492 1.85188 6.70476C1.40062 7.81621 1.17188 8.92488 1.17188 10C1.17188 14.8679 5.13215 18.8281 10 18.8281C11.7867 18.8281 13.5904 18.2337 15.0889 17.2029C14.8025 17.2617 14.5108 17.0988 14.416 16.8145C14.3137 16.5075 14.4796 16.1756 14.7866 16.0733L17.2725 15.2446C17.4821 15.1748 17.7145 15.2286 17.8721 15.3862C18.029 15.5431 18.0838 15.7752 18.0136 15.9857Z" fill="white"/>
<path d="M19.2338 13.7361C19.112 14.0359 18.7702 14.1802 18.4704 14.0586C18.1706 13.9368 18.0262 13.5951 18.1479 13.2952C18.5992 12.1838 18.8279 11.0751 18.8279 10C18.8279 5.13215 14.8677 1.17188 9.99982 1.17188C8.2131 1.17188 6.40943 1.76625 4.91087 2.79711C5.19728 2.73836 5.48904 2.90117 5.58384 3.18555C5.68615 3.4925 5.52025 3.82438 5.21326 3.92672L2.72732 4.75539C2.51685 4.82559 2.28462 4.77082 2.12771 4.61383C1.97075 4.45688 1.91595 4.22477 1.98615 4.01422L2.81478 1.52828C2.89665 1.28274 3.12521 1.12742 3.3706 1.12746C3.432 1.12746 3.4945 1.13719 3.55595 1.15766C3.86294 1.26 4.02884 1.5918 3.92654 1.89883L3.85611 2.11012C4.38189 1.70992 4.94849 1.35723 5.54497 1.06133C6.94493 0.367034 8.48536 2.86102e-06 9.99982 2.86102e-06C12.6565 2.86102e-06 15.1636 1.04414 17.0596 2.9402C18.9557 4.83617 19.9998 7.3434 19.9998 10C19.9998 11.227 19.742 12.4839 19.2338 13.7361Z" fill="white"/>
</svg>
