<svg width="32" height="32" viewBox="0 0 32 32" fill="none" xmlns="http://www.w3.org/2000/svg">
<g clip-path="url(#clip0_758_11554)">
<rect width="32" height="32" fill="white"/>
<circle cx="16" cy="16" r="16" fill="#B6B91D"/>
<path fill-rule="evenodd" clip-rule="evenodd" d="M16 24.2042C11.467 24.2042 7.78662 20.5238 7.78662 15.9909C7.78662 13.2143 9.16804 10.7576 11.2791 9.27077C11.5899 9.05169 11.6641 8.62269 11.446 8.31286C11.2278 8.00211 10.7979 7.92786 10.488 8.14602C8.02312 9.88219 6.41162 12.7495 6.41162 15.9909C6.41162 21.2828 10.708 25.5792 16 25.5792C16.3795 25.5792 16.6875 25.2712 16.6875 24.8917C16.6875 24.5122 16.3795 24.2042 16 24.2042Z" fill="white"/>
<path fill-rule="evenodd" clip-rule="evenodd" d="M16.5297 7.79401C20.816 8.06718 24.2132 11.6358 24.2132 15.9908C24.2132 18.4943 23.0912 20.7364 21.323 22.2434C21.0342 22.49 20.9994 22.9245 21.246 23.2133C21.4916 23.502 21.9261 23.5368 22.2149 23.2903C24.2792 21.5312 25.5882 18.9123 25.5882 15.9908C25.5882 10.9061 21.6218 6.74076 16.6168 6.42176C16.2382 6.39793 15.911 6.68576 15.8871 7.06434C15.8633 7.44293 16.1511 7.77018 16.5297 7.79401Z" fill="white"/>
<path fill-rule="evenodd" clip-rule="evenodd" d="M23.1407 22.5863H21.542V20.9876C21.542 20.6081 21.234 20.3001 20.8545 20.3001C20.475 20.3001 20.167 20.6081 20.167 20.9876V23.2738C20.167 23.6533 20.475 23.9613 20.8545 23.9613H23.1407C23.5202 23.9613 23.8282 23.6533 23.8282 23.2738C23.8282 22.8943 23.5202 22.5863 23.1407 22.5863Z" fill="white"/>
<path fill-rule="evenodd" clip-rule="evenodd" d="M9.39062 8.58691H10.9884V10.1847C10.9884 10.5642 11.2964 10.8722 11.6759 10.8722C12.0554 10.8722 12.3634 10.5642 12.3634 10.1847V7.89941C12.3634 7.51991 12.0563 7.21191 11.6759 7.21191H9.39062C9.01112 7.21191 8.70312 7.51991 8.70312 7.89941C8.70312 8.27891 9.01112 8.58691 9.39062 8.58691Z" fill="white"/>
<path fill-rule="evenodd" clip-rule="evenodd" d="M16.266 10.7237C13.3565 10.7237 10.9951 13.0859 10.9951 15.9945C10.9951 18.904 13.3565 21.2653 16.266 21.2653C19.1745 21.2653 21.5368 18.904 21.5368 15.9945C21.5368 13.0859 19.1745 10.7237 16.266 10.7237ZM15.3493 13.4737V15.7653C15.3493 15.9477 15.4217 16.1228 15.551 16.2521L17.3843 18.0854C17.652 18.3531 18.0883 18.3531 18.356 18.0854C18.6245 17.8168 18.6245 17.3814 18.356 17.1128L16.7243 15.4812V13.4737C16.7243 13.0942 16.4163 12.7862 16.0368 12.7862C15.6573 12.7862 15.3493 13.0942 15.3493 13.4737Z" fill="white"/>
</g>
<defs>
<clipPath id="clip0_758_11554">
<rect width="32" height="32" fill="white"/>
</clipPath>
</defs>
</svg>
