<svg width="375" height="559" viewBox="0 0 375 559" fill="none" xmlns="http://www.w3.org/2000/svg">
<g opacity="0.2">
<mask id="mask0_2005_17870" style="mask-type:alpha" maskUnits="userSpaceOnUse" x="0" y="-94" width="799" height="653">
<rect width="798.891" height="653" transform="translate(0 -94)" fill="white"/>
</mask>
<g mask="url(#mask0_2005_17870)">
<path d="M-282.092 315.196C-281.952 312.133 -280.901 309.172 -279.061 306.659L16.8653 -97.4393C19.4456 -100.949 23.3755 -103.341 27.7967 -104.092C32.2178 -104.844 36.7708 -103.894 40.4611 -101.451L464.841 180.521C466.667 181.733 468.226 183.277 469.427 185.065C470.628 186.853 471.448 188.85 471.84 190.941C472.232 193.032 472.189 195.177 471.712 197.252C471.235 199.327 470.334 201.291 469.061 203.034L173.173 607.041C170.584 610.552 166.642 612.94 162.212 613.681C157.782 614.423 153.225 613.458 149.539 610.997L-274.84 329.172C-277.19 327.62 -279.088 325.523 -280.357 323.078C-281.625 320.634 -282.222 317.921 -282.092 315.196ZM470.73 194.296C470.852 191.795 470.305 189.305 469.14 187.062C467.975 184.818 466.232 182.895 464.073 181.473L39.6746 -100.389C36.2795 -102.643 32.0882 -103.523 28.0159 -102.837C23.9435 -102.15 20.321 -99.9531 17.9396 -96.7249L-277.948 307.41C-279.645 309.714 -280.611 312.436 -280.73 315.251C-280.843 317.751 -280.291 320.237 -279.127 322.479C-277.964 324.721 -276.225 326.645 -274.073 328.073L150.326 609.99C153.719 612.249 157.912 613.132 161.986 612.446C166.06 611.759 169.682 609.558 172.061 606.326L467.948 202.228C469.652 199.913 470.618 197.178 470.73 194.351V194.296Z" fill="#009518"/>
<path d="M-284.338 299.59C-284.199 296.535 -283.125 293.587 -281.25 291.109L12.3551 -99.3063C14.919 -102.71 18.7899 -105.006 23.1215 -105.693C27.4532 -106.379 31.8933 -105.4 35.4713 -102.97L445.463 176.858C449.017 179.293 451.416 182.973 452.135 187.093C452.854 191.212 451.835 195.436 449.3 198.84L155.618 589.2C153.056 592.578 149.204 594.856 144.895 595.542C140.587 596.228 136.169 595.266 132.598 592.864L-277.471 313.091C-279.704 311.566 -281.502 309.532 -282.701 307.174C-283.901 304.816 -284.463 302.209 -284.338 299.59ZM451.045 190.304C451.159 187.892 450.638 185.491 449.528 183.321C448.419 181.151 446.757 179.282 444.696 177.884L34.6847 -101.889C31.4075 -104.132 27.332 -105.04 23.3537 -104.415C19.3754 -103.79 15.8196 -101.682 13.4677 -98.5553L-280.195 291.823C-281.917 294.097 -282.898 296.805 -283.015 299.608C-283.136 302.02 -282.62 304.421 -281.513 306.592C-280.407 308.762 -278.746 310.632 -276.684 312.028L133.308 591.783C136.596 593.992 140.662 594.881 144.63 594.257C148.598 593.634 152.151 591.548 154.525 588.449L448.168 198.052C449.888 195.777 450.874 193.071 451.007 190.267L451.045 190.304Z" fill="#009518"/>
<path d="M-286.617 283.927C-286.48 280.878 -285.391 277.937 -283.49 275.483L7.94682 -101.194C10.4953 -104.476 14.3009 -106.662 18.5319 -107.273C22.7628 -107.884 27.0749 -106.87 30.5259 -104.455L426.111 173.194C428.243 174.693 429.957 176.67 431.101 178.951C432.245 181.232 432.785 183.746 432.672 186.273C432.535 189.326 431.439 192.269 429.525 194.718L138.107 571.376C135.562 574.663 131.755 576.852 127.521 577.46C123.287 578.067 118.974 577.046 115.528 574.618L-280.056 297.006C-282.192 295.509 -283.907 293.532 -285.052 291.251C-286.196 288.97 -286.734 286.454 -286.617 283.927ZM431.233 186.2C431.339 183.886 430.847 181.582 429.8 179.493C428.752 177.403 427.182 175.592 425.228 174.22L29.7202 -103.41C26.5548 -105.619 22.6037 -106.545 18.727 -105.986C14.8503 -105.427 11.3619 -103.428 9.02112 -100.425L-282.397 276.252C-284.143 278.495 -285.139 281.189 -285.255 283.982C-285.368 286.297 -284.879 288.603 -283.831 290.694C-282.784 292.784 -281.21 294.594 -279.251 295.962L116.334 573.592C119.483 575.815 123.425 576.758 127.299 576.216C131.173 575.673 134.666 573.69 137.014 570.698L428.432 193.93C430.159 191.681 431.136 188.987 431.233 186.2Z" fill="#009518"/>
<path d="M-288.901 268.303C-288.76 265.253 -287.641 262.318 -285.697 259.895L3.43784 -103.061C4.68503 -104.651 6.25234 -105.987 8.04774 -106.991C9.84314 -107.994 11.8304 -108.645 13.8929 -108.905C15.946 -109.175 18.0349 -109.052 20.0375 -108.542C22.0402 -108.033 23.9164 -107.147 25.5565 -105.937L406.735 169.531C408.386 170.715 409.776 172.2 410.823 173.899C411.87 175.599 412.555 177.48 412.836 179.433C413.118 181.387 412.992 183.375 412.465 185.281C411.938 187.188 411.02 188.976 409.765 190.542L120.573 553.535C118.04 556.701 114.297 558.78 110.164 559.319C106.03 559.858 101.841 558.812 98.5117 556.411L-282.685 280.906C-284.708 279.438 -286.329 277.526 -287.411 275.332C-288.493 273.138 -289.004 270.726 -288.901 268.303ZM411.607 182.207C411.699 179.985 411.223 177.775 410.221 175.767C409.218 173.76 407.719 172.016 405.852 170.685L24.7316 -104.911C23.2314 -106.009 21.5169 -106.809 19.6886 -107.265C17.8604 -107.721 15.9552 -107.824 14.0847 -107.568C12.1971 -107.34 10.3762 -106.755 8.72895 -105.846C7.08173 -104.936 5.64149 -103.722 4.49292 -102.274L-284.623 260.682C-286.396 262.895 -287.414 265.574 -287.539 268.358C-287.631 270.58 -287.155 272.791 -286.152 274.798C-285.15 276.805 -283.65 278.55 -281.784 279.88L99.3558 555.385C102.398 557.574 106.223 558.525 109.997 558.03C113.77 557.536 117.186 555.637 119.499 552.747L408.691 189.791C410.462 187.577 411.479 184.899 411.607 182.116V182.207Z" fill="#009518"/>
<path d="M-291.195 252.66C-291.059 249.619 -289.925 246.697 -287.953 244.307L-0.98518 -104.947C1.50806 -107.983 5.15454 -109.958 9.16294 -110.443C11.1944 -110.701 13.2594 -110.569 15.2363 -110.053C17.2132 -109.537 19.0618 -108.648 20.6731 -107.439L387.348 165.868C390.537 168.262 392.603 171.764 393.095 175.609C393.588 179.453 392.466 183.327 389.976 186.385L103.009 535.694C100.501 538.754 96.8219 540.738 92.7818 541.209C88.7417 541.679 84.6713 540.598 81.4659 538.203L-285.324 264.786C-287.239 263.354 -288.77 261.507 -289.791 259.399C-290.811 257.29 -291.293 254.981 -291.195 252.66ZM391.876 178.05C391.966 175.925 391.526 173.811 390.592 171.881C389.658 169.951 388.257 168.26 386.504 166.949L19.7331 -106.413C18.2864 -107.496 16.6302 -108.297 14.8592 -108.768C13.0883 -109.24 11.2373 -109.373 9.41233 -109.161C7.58902 -108.951 5.82699 -108.399 4.22718 -107.538C2.62737 -106.676 1.22121 -105.522 0.0891281 -104.141L-286.878 245.094C-288.681 247.273 -289.715 249.94 -289.833 252.715C-289.933 254.836 -289.5 256.949 -288.569 258.878C-287.637 260.806 -286.235 262.493 -284.48 263.797L82.2908 537.177C83.7365 538.261 85.3916 539.061 87.1615 539.534C88.9314 540.006 90.7814 540.14 92.6058 539.929C94.4302 539.718 96.1931 539.166 97.7939 538.304C99.3946 537.442 100.802 536.288 101.935 534.906L388.998 185.67C390.768 183.48 391.775 180.815 391.876 178.05Z" fill="#009518"/>
<path d="M-293.445 237.033C-293.307 233.992 -292.142 231.075 -290.126 228.717L-5.3845 -106.817C-2.87805 -109.744 0.738846 -111.607 4.67749 -111.998C8.61612 -112.389 12.557 -111.277 15.6407 -108.905L368.024 162.313C369.836 163.719 371.28 165.509 372.239 167.541C373.198 169.573 373.647 171.792 373.549 174.019C373.417 177.058 372.26 179.975 370.249 182.335L85.5073 517.869C84.2681 519.332 82.7391 520.547 81.0079 521.446C79.2766 522.344 77.3769 522.908 75.4173 523.106C73.4578 523.303 71.4767 523.13 69.5872 522.596C67.6977 522.062 65.937 521.178 64.4054 519.994L-287.901 248.739C-289.715 247.333 -291.16 245.544 -292.122 243.512C-293.085 241.48 -293.538 239.262 -293.445 237.033ZM372.225 173.964C372.306 171.938 371.892 169.922 371.016 168.075C370.141 166.228 368.827 164.6 367.18 163.321L14.7774 -107.934C11.9789 -110.062 8.41632 -111.053 4.85921 -110.693C1.3021 -110.333 -1.96398 -108.651 -4.2335 -106.011L-289.071 229.523C-290.904 231.668 -291.961 234.322 -292.083 237.088C-292.173 239.115 -291.763 241.134 -290.887 242.983C-290.01 244.831 -288.692 246.458 -287.038 247.731L65.3262 518.986C68.1252 521.171 71.718 522.205 75.315 521.862C78.9121 521.518 82.2192 519.825 84.5098 517.155L369.194 181.529C371.027 179.384 372.084 176.73 372.206 173.964H372.225Z" fill="#009518"/>
<path d="M-295.748 221.389C-295.616 218.351 -294.436 215.44 -292.39 213.11L-9.87368 -108.686C-8.65148 -110.092 -7.14855 -111.251 -5.45242 -112.097C-3.75628 -112.943 -1.90086 -113.459 0.00585028 -113.613C1.91008 -113.78 3.83005 -113.584 5.65441 -113.037C7.47877 -112.49 9.17122 -111.602 10.6336 -110.426L348.706 158.705C350.174 159.865 351.389 161.29 352.28 162.898C353.171 164.507 353.721 166.268 353.899 168.079C354.078 169.891 353.88 171.719 353.318 173.458C352.756 175.197 351.841 176.813 350.624 178.213L67.935 500.027C65.4511 502.846 61.8999 504.611 58.0573 504.937C54.2147 505.263 50.3932 504.123 47.4277 501.767L-290.549 232.637C-292.274 231.279 -293.643 229.555 -294.545 227.602C-295.448 225.649 -295.86 223.521 -295.748 221.389ZM352.543 169.879C352.633 167.948 352.254 166.024 351.435 164.257C350.617 162.49 349.38 160.928 347.823 159.694L9.77031 -109.437C8.44966 -110.497 6.92205 -111.297 5.27573 -111.791C3.62941 -112.285 1.897 -112.462 0.17852 -112.313C-1.54631 -112.174 -3.22501 -111.709 -4.7598 -110.945C-6.29458 -110.181 -7.65475 -109.133 -8.76103 -107.861L-291.335 213.952C-293.201 216.055 -294.28 218.691 -294.405 221.444C-294.497 223.377 -294.118 225.305 -293.3 227.075C-292.481 228.845 -291.244 230.41 -289.686 231.648L48.291 500.778C50.9791 502.913 54.4428 503.946 57.9256 503.651C61.4084 503.355 64.6275 501.756 66.8798 499.203L349.397 177.389C351.294 175.291 352.401 172.647 352.543 169.879Z" fill="#009518"/>
<path d="M-298.022 205.764C-297.88 202.723 -296.662 199.817 -294.569 197.521L-14.2771 -110.572C-13.0633 -111.916 -11.5817 -113.017 -9.91863 -113.809C-8.2555 -114.602 -6.44398 -115.07 -4.5894 -115.188C-2.73484 -115.321 -0.871131 -115.101 0.89386 -114.542C2.65885 -113.982 4.29005 -113.094 5.69299 -111.928L329.282 155.078C330.687 156.236 331.839 157.649 332.671 159.233C333.504 160.818 334 162.544 334.132 164.313C334.264 166.081 334.029 167.857 333.44 169.538C332.851 171.22 331.921 172.773 330.701 174.11L50.4099 482.204C47.9471 484.908 44.4618 486.569 40.7183 486.823C36.9748 487.077 33.2785 485.903 30.4398 483.559L-293.13 216.554C-294.748 215.226 -296.029 213.566 -296.876 211.696C-297.724 209.827 -298.115 207.799 -298.022 205.764ZM332.792 165.867C332.882 164.027 332.531 162.191 331.767 160.499C331.002 158.807 329.844 157.304 328.38 156.104L4.81055 -110.957C2.23904 -113.075 -1.10591 -114.135 -4.49351 -113.906C-6.17049 -113.794 -7.80788 -113.367 -9.31215 -112.651C-10.8164 -111.934 -12.158 -110.942 -13.2604 -109.73L-293.533 198.364C-295.433 200.437 -296.536 203.067 -296.66 205.819C-296.749 207.66 -296.398 209.496 -295.634 211.187C-294.869 212.879 -293.711 214.382 -292.247 215.583L31.3223 482.588C33.8917 484.708 37.2362 485.769 40.6232 485.539C44.0103 485.309 47.1639 483.807 49.3932 481.361L329.685 173.194C331.558 171.157 332.653 168.575 332.792 165.867Z" fill="#009518"/>
<path d="M-300.292 190.121C-300.154 187.081 -298.905 184.184 -296.762 181.933L-18.7149 -112.44C-17.499 -113.737 -16.0243 -114.789 -14.3773 -115.534C-12.7302 -116.28 -10.9439 -116.704 -9.12306 -116.782C-5.49554 -116.954 -1.94405 -115.749 0.756473 -113.43L309.919 151.451C311.263 152.603 312.356 153.996 313.136 155.551C313.916 157.106 314.367 158.793 314.463 160.515C314.559 162.237 314.299 163.96 313.697 165.586C313.095 167.211 312.163 168.708 310.955 169.989L32.889 464.454C30.4415 467.041 27.0195 468.596 23.3731 468.778C19.7267 468.96 16.1535 467.754 13.4368 465.424L-295.822 200.452C-297.32 199.152 -298.498 197.552 -299.271 195.765C-300.044 193.979 -300.392 192.051 -300.292 190.121ZM313.123 161.728C313.201 159.983 312.874 158.244 312.164 156.635C311.454 155.026 310.379 153.587 309.018 152.422L-0.164338 -112.459C-1.37242 -113.506 -2.78688 -114.312 -4.32508 -114.831C-5.86329 -115.35 -7.49438 -115.571 -9.12306 -115.481C-12.3971 -115.31 -15.4668 -113.907 -17.6597 -111.579L-295.822 182.794C-297.729 184.815 -298.847 187.403 -298.987 190.121C-299.074 191.866 -298.75 193.608 -298.039 195.218C-297.329 196.828 -296.25 198.266 -294.882 199.426L14.3385 464.454C16.7875 466.553 20.0088 467.64 23.2957 467.475C26.5827 467.311 29.667 465.908 31.8723 463.574L310.034 169.201C311.937 167.126 313.028 164.485 313.123 161.728Z" fill="#009518"/>
<path d="M-302.582 174.495C-302.436 171.457 -301.165 168.568 -298.995 166.343L-23.1541 -114.401C-21.9502 -115.615 -20.5066 -116.59 -18.9065 -117.269C-17.3064 -117.948 -15.5814 -118.318 -13.8309 -118.358C-12.0729 -118.419 -10.3196 -118.147 -8.67295 -117.555C-7.02631 -116.964 -5.51917 -116.066 -4.23909 -114.914L290.555 147.842C293.125 150.161 294.633 153.355 294.751 156.73C294.87 160.105 293.589 163.388 291.188 165.867L15.3474 446.538C12.9134 449.005 9.55516 450.452 6.00698 450.562C2.45879 450.672 -0.990605 449.436 -3.58684 447.124L-298.362 184.368C-299.766 183.108 -300.87 181.574 -301.598 179.87C-302.326 178.166 -302.662 176.333 -302.582 174.495ZM293.433 157.66C293.504 156.002 293.198 154.35 292.536 152.816C291.874 151.282 290.871 149.904 289.596 148.776L-5.14073 -113.98C-6.30228 -115.019 -7.6691 -115.826 -9.16124 -116.354C-10.6534 -116.883 -12.2409 -117.122 -13.8309 -117.057C-15.4133 -117.01 -16.9698 -116.662 -18.4094 -116.033C-19.8489 -115.404 -21.1424 -114.506 -22.2141 -113.394L-297.997 167.222C-299.955 169.22 -301.104 171.817 -301.239 174.55C-301.312 176.207 -301.007 177.861 -300.345 179.395C-299.682 180.929 -298.678 182.307 -297.403 183.434L-2.66603 446.135C-0.332416 448.212 2.76791 449.323 5.95674 449.223C9.14556 449.123 12.1633 447.822 14.3498 445.603L290.191 164.987C292.148 162.99 293.297 160.393 293.433 157.66Z" fill="#009518"/>
<path d="M-304.917 158.851C-304.783 155.809 -303.471 152.924 -301.234 150.754L-27.6182 -116.233C-25.2019 -118.581 -21.9105 -119.92 -18.4632 -119.958C-15.0159 -119.996 -11.6931 -118.729 -9.22109 -116.434L271.147 144.215C272.369 145.35 273.345 146.705 274.018 148.201C274.691 149.698 275.049 151.306 275.07 152.934C275.092 154.563 274.776 156.179 274.143 157.691C273.509 159.203 272.569 160.581 271.377 161.745L-2.23826 428.696C-4.64945 431.051 -7.94036 432.397 -11.3892 432.438C-14.838 432.479 -18.1632 431.212 -20.6353 428.916L-301.003 168.285C-302.315 167.065 -303.342 165.594 -304.017 163.968C-304.691 162.342 -304.998 160.598 -304.917 158.851ZM273.718 153.575C273.787 152.014 273.509 150.456 272.905 149.004C272.3 147.552 271.38 146.238 270.207 145.149L-10.1611 -115.5C-12.3837 -117.55 -15.3639 -118.678 -18.4535 -118.641C-21.543 -118.603 -24.492 -117.402 -26.659 -115.299L-300.255 151.652C-302.275 153.617 -303.458 156.228 -303.574 158.979C-303.643 160.541 -303.366 162.098 -302.761 163.55C-302.156 165.002 -301.237 166.316 -300.063 167.406L-19.6186 428C-17.396 430.049 -14.4158 431.178 -11.3262 431.14C-8.23667 431.103 -5.28767 429.902 -3.12073 427.798L270.399 160.848C272.405 158.897 273.587 156.307 273.718 153.575Z" fill="#009518"/>
<path d="M-307.208 143.227C-307.051 140.166 -305.679 137.277 -303.372 135.148L-32.039 -118.064C-29.6348 -120.294 -26.406 -121.527 -23.0544 -121.497C-19.7028 -121.466 -16.4994 -120.173 -14.1407 -117.899L251.821 140.607C252.984 141.735 253.904 143.07 254.525 144.538C255.147 146.006 255.458 147.576 255.442 149.159C255.426 150.742 255.083 152.307 254.432 153.763C253.78 155.219 252.834 156.537 251.648 157.643L-19.7424 410.873C-22.1409 413.107 -25.3676 414.343 -28.7175 414.312C-32.0675 414.281 -35.2685 412.986 -37.6215 410.708L-303.506 152.184C-304.73 151.011 -305.69 149.611 -306.327 148.071C-306.963 146.53 -307.263 144.882 -307.208 143.227ZM254.065 149.51C254.134 148.04 253.888 146.573 253.344 145.196C252.8 143.82 251.968 142.564 250.9 141.505L-15.1191 -117.001C-17.2202 -119.038 -20.0797 -120.198 -23.0735 -120.229C-26.0673 -120.26 -28.9523 -119.159 -31.099 -117.166L-302.47 136.083C-304.515 137.984 -305.722 140.559 -305.846 143.282C-305.911 144.755 -305.658 146.226 -305.104 147.603C-304.549 148.98 -303.705 150.233 -302.624 151.287L-36.6623 409.793C-34.562 411.824 -31.7066 412.981 -28.7175 413.011C-25.7283 413.042 -22.8474 411.945 -20.7015 409.957L250.689 156.709C252.74 154.812 253.949 152.234 254.065 149.51Z" fill="#009518"/>
<path d="M-309.496 127.601C-309.381 124.542 -308.001 121.65 -305.659 119.559L-36.4556 -119.896C-35.2763 -120.946 -33.8914 -121.763 -32.3803 -122.301C-30.8692 -122.838 -29.2617 -123.086 -27.6503 -123.028C-26.0416 -122.986 -24.4575 -122.641 -22.9891 -122.012C-21.5207 -121.384 -20.197 -120.484 -19.0944 -119.364L232.479 137.09C234.689 139.352 235.867 142.359 235.756 145.451C235.644 148.542 234.252 151.465 231.885 153.576L-37.2613 393.013C-39.6486 395.124 -42.8126 396.249 -46.0643 396.142C-49.316 396.036 -52.392 394.707 -54.6224 392.445L-306.196 135.991C-307.301 134.871 -308.161 133.552 -308.727 132.112C-309.294 130.672 -309.555 129.139 -309.496 127.601ZM234.417 145.425C234.484 144.043 234.258 142.663 233.754 141.366C233.25 140.069 232.477 138.883 231.482 137.878L-20.092 -118.522C-21.0742 -119.534 -22.2597 -120.348 -23.5779 -120.915C-24.8961 -121.481 -26.3202 -121.789 -27.7654 -121.819C-29.2021 -121.868 -30.6348 -121.646 -31.9812 -121.165C-33.3277 -120.684 -34.5614 -119.954 -35.6115 -119.016L-304.757 120.512C-305.799 121.426 -306.64 122.528 -307.233 123.754C-307.825 124.98 -308.158 126.306 -308.21 127.656C-308.282 129.038 -308.058 130.42 -307.554 131.717C-307.049 133.014 -306.274 134.2 -305.275 135.203L-53.7208 391.657C-51.7414 393.645 -49.0238 394.81 -46.1533 394.902C-43.2828 394.995 -40.4892 394.007 -38.3739 392.152L230.964 152.569C233.058 150.717 234.3 148.148 234.417 145.425Z" fill="#009518"/>
<path d="M-311.836 111.958C-311.767 110.439 -311.378 108.949 -310.692 107.577C-310.007 106.205 -309.039 104.979 -307.846 103.971L-40.9064 -121.837C-38.536 -123.834 -35.4347 -124.854 -32.2792 -124.676C-29.1237 -124.497 -26.1702 -123.134 -24.0632 -120.884L213.104 133.372C214.142 134.486 214.94 135.785 215.452 137.194C215.964 138.603 216.18 140.095 216.088 141.584C215.995 143.073 215.596 144.53 214.912 145.871C214.229 147.212 213.275 148.412 212.106 149.4L-54.8337 375.227C-57.2087 377.217 -60.3104 378.231 -63.4644 378.05C-66.6185 377.868 -69.5699 376.504 -71.6769 374.256L-308.824 120.073C-310.912 117.855 -311.995 114.937 -311.836 111.958ZM214.734 141.359C214.858 138.745 213.908 136.188 212.087 134.233L-25.0799 -120.023C-26.9447 -122.019 -29.5605 -123.23 -32.3565 -123.391C-35.1526 -123.552 -37.902 -122.651 -40.0048 -120.884L-306.944 104.924C-308.005 105.816 -308.864 106.904 -309.471 108.123C-310.078 109.341 -310.419 110.665 -310.474 112.013C-310.598 114.627 -309.648 117.184 -307.827 119.139L-70.6602 373.413C-68.7901 375.402 -66.1736 376.607 -63.3791 376.764C-60.5847 376.922 -57.8379 376.021 -55.7354 374.256L211.204 148.448C212.265 147.556 213.124 146.468 213.731 145.249C214.338 144.031 214.679 142.707 214.734 141.359Z" fill="#009518"/>
<path d="M-314.146 96.2583C-314.074 94.7316 -313.672 93.2356 -312.966 91.8643C-312.259 90.493 -311.263 89.2761 -310.041 88.2899L-45.3072 -123.798C-44.1375 -124.722 -42.7879 -125.417 -41.3359 -125.841C-39.884 -126.266 -38.3584 -126.412 -36.8472 -126.271C-35.3326 -126.151 -33.8578 -125.747 -32.5078 -125.08C-31.1579 -124.414 -29.9595 -123.498 -28.9819 -122.387L193.74 129.762C195.614 131.865 196.581 134.569 196.444 137.328C196.378 138.855 195.979 140.353 195.272 141.725C194.565 143.097 193.566 144.314 192.339 145.296L-72.3944 357.384C-74.7492 359.264 -77.7872 360.179 -80.8457 359.928C-83.9041 359.678 -86.7346 358.282 -88.7196 356.047L-311.441 103.897C-313.324 101.77 -314.29 99.0398 -314.146 96.2583ZM195.102 137.273C195.203 134.837 194.348 132.452 192.704 130.587L-30.0562 -121.545C-31.8012 -123.526 -34.2992 -124.765 -37.0007 -124.988C-38.3479 -125.107 -39.7063 -124.968 -40.9971 -124.582C-42.288 -124.195 -43.4856 -123.567 -44.5206 -122.735L-309.254 89.3524C-310.336 90.2212 -311.216 91.2951 -311.841 92.506C-312.465 93.7168 -312.819 95.0383 -312.88 96.3866C-312.998 98.8219 -312.148 101.21 -310.501 103.073L-87.6262 355.204C-85.8805 357.162 -83.3965 358.383 -80.7134 358.603C-78.0304 358.822 -75.365 358.022 -73.296 356.376L191.438 144.307C192.523 143.439 193.41 142.366 194.04 141.156C194.671 139.945 195.032 138.623 195.102 137.273Z" fill="#009518"/>
<path d="M-316.463 80.6891C-316.391 79.1572 -315.975 77.658 -315.243 76.2928C-314.512 74.9277 -313.482 73.7282 -312.224 72.7757L-49.7345 -125.61C-48.5803 -126.487 -47.2549 -127.137 -45.8355 -127.52C-44.416 -127.904 -42.9309 -128.014 -41.4664 -127.845C-40.0034 -127.687 -38.5875 -127.255 -37.3002 -126.573C-36.0129 -125.891 -34.8796 -124.972 -33.9656 -123.87L174.407 126.155C175.316 127.26 175.988 128.526 176.384 129.881C176.78 131.235 176.892 132.65 176.714 134.046C176.536 135.441 176.071 136.789 175.346 138.013C174.621 139.237 173.649 140.311 172.488 141.176L-89.8857 339.561C-92.2252 341.32 -95.1978 342.123 -98.1553 341.797C-101.113 341.471 -103.815 340.042 -105.674 337.821L-314.027 87.8149C-315.709 85.7963 -316.574 83.2667 -316.463 80.6891ZM175.481 133.207C175.582 130.943 174.826 128.719 173.352 126.942L-35.0207 -123.064C-35.8247 -124.034 -36.8217 -124.842 -37.9542 -125.443C-39.0868 -126.043 -40.3326 -126.424 -41.6198 -126.563C-42.9085 -126.709 -44.2148 -126.609 -45.4629 -126.27C-46.711 -125.93 -47.876 -125.357 -48.8904 -124.584L-311.379 73.7832C-312.485 74.6221 -313.389 75.6775 -314.031 76.8783C-314.673 78.079 -315.038 79.3972 -315.101 80.7441C-315.203 83.0088 -314.447 85.2327 -312.972 87.0089L-104.6 337.015C-102.967 338.967 -100.592 340.223 -97.9932 340.508C-95.3943 340.793 -92.7829 340.084 -90.7298 338.536L171.74 140.223C172.855 139.379 173.766 138.316 174.412 137.105C175.057 135.894 175.422 134.565 175.481 133.207Z" fill="#009518"/>
<path d="M-318.837 65.117C-318.764 63.5743 -318.333 62.0662 -317.577 60.7012C-316.821 59.3361 -315.757 58.1479 -314.463 57.2218L-54.1036 -127.48C-52.9522 -128.309 -51.6403 -128.912 -50.2437 -129.254C-48.847 -129.596 -47.3932 -129.67 -45.9663 -129.473C-44.5393 -129.275 -43.1675 -128.809 -41.9301 -128.103C-40.6926 -127.396 -39.6141 -126.462 -38.7567 -125.355L154.998 122.526C155.853 123.62 156.473 124.865 156.824 126.188C157.175 127.512 157.249 128.888 157.043 130.239C156.836 131.59 156.352 132.888 155.62 134.061C154.887 135.233 153.919 136.256 152.772 137.071L-107.453 321.718C-108.604 322.547 -109.916 323.149 -111.313 323.491C-112.71 323.833 -114.163 323.908 -115.59 323.71C-117.017 323.513 -118.389 323.047 -119.627 322.34C-120.864 321.634 -121.943 320.7 -122.8 319.593L-316.669 71.7115C-318.159 69.8141 -318.924 67.487 -318.837 65.117ZM155.803 129.231C155.876 127.143 155.199 125.094 153.885 123.424L-40.0228 -124.586C-41.5491 -126.529 -43.8214 -127.814 -46.3397 -128.158C-48.8581 -128.501 -51.4162 -127.875 -53.4513 -126.418L-313.619 58.211C-314.761 59.0132 -315.698 60.0505 -316.362 61.2461C-317.027 62.4416 -317.4 63.7647 -317.456 65.117C-317.533 67.2111 -316.856 69.2671 -315.537 70.9421L-121.611 318.824C-120.084 320.767 -117.812 322.052 -115.294 322.395C-112.775 322.739 -110.217 322.113 -108.182 320.655L151.986 136.027C153.125 135.223 154.061 134.185 154.725 132.99C155.389 131.794 155.764 130.472 155.822 129.121L155.803 129.231Z" fill="#009518"/>
<path d="M-321.18 49.4177C-321.12 47.8639 -320.679 46.3453 -319.892 44.9837C-319.106 43.6221 -317.997 42.4555 -316.653 41.5775L-58.6334 -129.368C-56.328 -130.886 -53.4873 -131.473 -50.7309 -130.999C-47.9745 -130.526 -45.526 -129.03 -43.9196 -126.84L135.639 118.917C136.428 119.999 136.986 121.219 137.28 122.508C137.575 123.796 137.601 125.127 137.357 126.425C137.113 127.723 136.604 128.962 135.858 130.072C135.112 131.182 134.145 132.141 133.011 132.894L-125.009 303.839C-127.301 305.374 -130.137 305.982 -132.897 305.529C-135.657 305.076 -138.117 303.599 -139.742 301.421L-319.3 55.6459C-320.644 53.8316 -321.307 51.6368 -321.18 49.4177ZM136.176 125.053C136.274 123.132 135.693 121.235 134.526 119.668L-45.0322 -126.107C-46.4334 -128.018 -48.5696 -129.322 -50.9743 -129.734C-53.379 -130.146 -55.8566 -129.632 -57.866 -128.305L-315.885 42.64C-317.054 43.4084 -318.019 44.4257 -318.705 45.6116C-319.39 46.7974 -319.778 48.1192 -319.837 49.4727C-319.925 51.3925 -319.345 53.2862 -318.187 54.8582L-138.533 300.633C-137.132 302.544 -134.996 303.848 -132.591 304.26C-130.186 304.672 -127.709 304.158 -125.699 302.831L132.32 131.886C133.471 131.108 134.417 130.086 135.086 128.901C135.755 127.716 136.128 126.399 136.176 125.053Z" fill="#009518"/>
<path d="M-323.558 33.7757C-323.484 32.2139 -323.018 30.6919 -322.2 29.3373C-321.382 27.9827 -320.236 26.8351 -318.859 25.9905L-63.0645 -131.253C-60.7726 -132.653 -57.9934 -133.132 -55.3337 -132.582C-52.6739 -132.033 -50.3498 -130.502 -48.8687 -128.322L116.283 115.31C117.014 116.388 117.516 117.594 117.758 118.857C118.001 120.121 117.98 121.418 117.696 122.674C117.413 123.93 116.873 125.12 116.107 126.176C115.341 127.232 114.364 128.134 113.233 128.829L-142.561 286.072C-144.859 287.464 -147.64 287.934 -150.299 287.378C-152.958 286.822 -155.279 285.286 -156.757 283.104L-321.928 39.4727C-323.072 37.779 -323.641 35.7897 -323.558 33.7757ZM116.609 120.989C116.683 119.234 116.187 117.5 115.189 116.024L-49.9813 -127.607C-51.2657 -129.499 -53.2834 -130.828 -55.5921 -131.302C-57.9008 -131.776 -60.312 -131.356 -62.2972 -130.135L-318.13 27.0713C-319.326 27.8082 -320.319 28.8083 -321.027 29.9876C-321.734 31.1669 -322.135 32.4911 -322.196 33.849C-322.278 35.6048 -321.782 37.3408 -320.777 38.8132L-155.625 282.445C-154.331 284.327 -152.311 285.645 -150.005 286.112C-147.698 286.578 -145.291 286.156 -143.309 284.936L112.484 127.748C113.69 127.02 114.694 126.026 115.412 124.849C116.13 123.673 116.54 122.349 116.609 120.989Z" fill="#009518"/>
<path d="M-325.958 18.1503C-325.887 16.5709 -325.403 15.0336 -324.553 13.6774C-323.702 12.3213 -322.51 11.1891 -321.086 10.3834L-67.5747 -133.121C-65.3011 -134.403 -62.5884 -134.775 -60.0292 -134.153C-57.47 -133.532 -55.2722 -131.969 -53.916 -129.805L96.9054 111.701C97.5776 112.773 98.021 113.961 98.2103 115.197C98.3995 116.433 98.3307 117.693 98.008 118.903C97.6852 120.114 97.1149 121.252 96.3297 122.251C95.5446 123.25 94.5601 124.091 93.4332 124.725L-160.135 268.248C-162.413 269.527 -165.127 269.895 -167.688 269.275C-170.249 268.654 -172.45 267.094 -173.813 264.933L-324.635 23.4076C-325.602 21.8153 -326.062 19.9884 -325.958 18.1503ZM96.9438 116.904C97.0184 115.314 96.5979 113.74 95.7352 112.379L-55.0094 -129.054C-56.1824 -130.927 -58.0832 -132.28 -60.2971 -132.818C-62.511 -133.357 -64.8582 -133.038 -66.8265 -131.93L-320.395 11.5008C-321.631 12.1924 -322.666 13.1681 -323.407 14.339C-324.147 15.5099 -324.569 16.8389 -324.635 18.2053C-324.71 19.8002 -324.289 21.3808 -323.426 22.7482L-172.682 264.273C-171.505 266.142 -169.603 267.491 -167.39 268.027C-165.176 268.562 -162.83 268.24 -160.864 267.131L92.7426 123.608C93.9712 122.912 94.9988 121.934 95.7323 120.764C96.4659 119.593 96.8822 118.266 96.9438 116.904Z" fill="#009518"/>
<path d="M-328.292 2.50663C-328.225 0.911164 -327.723 -0.639868 -326.834 -1.99264C-325.946 -3.34542 -324.703 -4.45292 -323.228 -5.20531L-71.9228 -135.008C-69.6689 -136.174 -67.024 -136.443 -64.5632 -135.757C-62.1024 -135.071 -60.0247 -133.485 -58.7821 -131.344L77.5941 108.111C78.2078 109.17 78.5955 110.335 78.7346 111.539C78.8738 112.742 78.7618 113.96 78.405 115.122C78.0482 116.283 77.4538 117.366 76.656 118.307C75.8583 119.248 74.8731 120.029 73.7574 120.604L-177.548 250.406C-179.801 251.578 -182.447 251.85 -184.91 251.163C-187.372 250.477 -189.449 248.887 -190.688 246.743L-327.141 7.306C-327.968 5.83328 -328.365 4.17592 -328.292 2.50663ZM77.4023 112.837C77.45 111.397 77.0852 109.972 76.3472 108.715L-59.8564 -130.685C-60.9184 -132.532 -62.702 -133.904 -64.8185 -134.501C-66.9349 -135.098 -69.2127 -134.872 -71.1555 -133.872L-322.672 -4.06958C-323.938 -3.42109 -325.006 -2.46842 -325.77 -1.30555C-326.534 -0.142688 -326.967 1.19018 -327.026 2.56158C-327.086 3.99813 -326.734 5.42302 -326.01 6.68318L-189.672 246.083C-188.61 247.931 -186.826 249.302 -184.71 249.899C-182.593 250.496 -180.315 250.27 -178.373 249.271L72.9325 119.468C74.2221 118.835 75.3143 117.889 76.099 116.725C76.8837 115.561 77.3332 114.22 77.4023 112.837Z" fill="#009518"/>
<path d="M-330.729 -13.1377C-330.655 -14.7498 -330.125 -16.3128 -329.197 -17.6609C-328.268 -19.009 -326.974 -20.0918 -325.453 -20.7946L-76.335 -136.895C-75.2191 -137.413 -74.0073 -137.716 -72.7687 -137.787C-71.5301 -137.857 -70.289 -137.694 -69.1166 -137.306C-67.9442 -136.918 -66.8634 -136.313 -65.936 -135.526C-65.0087 -134.739 -64.253 -133.785 -63.7122 -132.719L58.2187 104.502C58.9104 105.843 59.2339 107.331 59.1587 108.825C59.0843 110.439 58.5549 112.004 57.6264 113.355C56.6979 114.706 55.4047 115.793 53.8832 116.5L-195.216 232.582C-197.46 233.627 -200.047 233.78 -202.409 233.007C-204.771 232.235 -206.717 230.6 -207.819 228.461L-329.769 -8.81456C-330.454 -10.1592 -330.783 -11.6435 -330.729 -13.1377ZM57.7967 108.77C57.8497 107.504 57.5729 106.245 56.991 105.106L-64.9591 -132.206C-65.9044 -134.034 -67.5693 -135.43 -69.5896 -136.089C-71.6099 -136.748 -73.8213 -136.616 -75.7403 -135.723L-324.858 -19.6406C-326.155 -19.0325 -327.258 -18.1033 -328.051 -16.9499C-328.844 -15.7964 -329.298 -14.4609 -329.366 -13.0827C-329.417 -11.8148 -329.133 -10.5551 -328.542 -9.41905L-206.592 227.856C-205.653 229.686 -203.994 231.086 -201.976 231.749C-199.959 232.411 -197.748 232.283 -195.83 231.392L53.3077 115.328C54.6102 114.728 55.7167 113.801 56.5077 112.645C57.2988 111.489 57.7445 110.149 57.7967 108.77Z" fill="#009518"/>
</g>
</g>
</svg>
