<svg width="109" height="23" viewBox="0 0 109 23" fill="none" xmlns="http://www.w3.org/2000/svg">
<g style="mix-blend-mode:multiply">
<rect width="109" height="23" rx="11.5" fill="#FEF3F2"/>
<circle cx="10" cy="11.5" r="3" fill="#F04438"/>
<path d="M24.0877 16H21.1303V7.27273H24.1474C25.0138 7.27273 25.7582 7.44744 26.3803 7.79688C27.0053 8.14347 27.4854 8.64205 27.8207 9.29261C28.1559 9.94318 28.3235 10.7216 28.3235 11.6278C28.3235 12.5369 28.1545 13.3182 27.8164 13.9716C27.4812 14.625 26.9968 15.1264 26.3633 15.4759C25.7326 15.8253 24.9741 16 24.0877 16ZM22.7113 14.6321H24.011C24.619 14.6321 25.1261 14.5213 25.5323 14.2997C25.9386 14.0753 26.244 13.7415 26.4485 13.2983C26.6531 12.8523 26.7553 12.2955 26.7553 11.6278C26.7553 10.9602 26.6531 10.4062 26.4485 9.96591C26.244 9.52273 25.9414 9.19176 25.5408 8.97301C25.1431 8.75142 24.6488 8.64062 24.0579 8.64062H22.7113V14.6321ZM29.7575 16V9.45455H31.3001V16H29.7575ZM30.533 8.52557C30.2887 8.52557 30.0785 8.4446 29.9023 8.28267C29.7262 8.1179 29.6381 7.92045 29.6381 7.69034C29.6381 7.45739 29.7262 7.25994 29.9023 7.09801C30.0785 6.93324 30.2887 6.85085 30.533 6.85085C30.7802 6.85085 30.9904 6.93324 31.1637 7.09801C31.3398 7.25994 31.4279 7.45739 31.4279 7.69034C31.4279 7.92045 31.3398 8.1179 31.1637 8.28267C30.9904 8.4446 30.7802 8.52557 30.533 8.52557ZM38.0597 11.1847L36.6534 11.3381C36.6136 11.196 36.544 11.0625 36.4446 10.9375C36.348 10.8125 36.2173 10.7116 36.0526 10.6349C35.8878 10.5582 35.6861 10.5199 35.4474 10.5199C35.1264 10.5199 34.8565 10.5895 34.6378 10.7287C34.4219 10.8679 34.3153 11.0483 34.3182 11.2699C34.3153 11.4602 34.3849 11.6151 34.527 11.7344C34.6719 11.8537 34.9105 11.9517 35.2429 12.0284L36.3594 12.267C36.9787 12.4006 37.4389 12.6122 37.7401 12.902C38.044 13.1918 38.1974 13.571 38.2003 14.0398C38.1974 14.4517 38.0767 14.8153 37.8381 15.1307C37.6023 15.4432 37.2741 15.6875 36.8537 15.8636C36.4332 16.0398 35.9503 16.1278 35.4048 16.1278C34.6037 16.1278 33.9588 15.9602 33.4702 15.625C32.9815 15.2869 32.6903 14.8168 32.5966 14.2145L34.1009 14.0696C34.169 14.3651 34.3139 14.5881 34.5355 14.7386C34.7571 14.8892 35.0455 14.9645 35.4006 14.9645C35.767 14.9645 36.0611 14.8892 36.2827 14.7386C36.5071 14.5881 36.6193 14.402 36.6193 14.1804C36.6193 13.9929 36.5469 13.8381 36.402 13.7159C36.2599 13.5937 36.0384 13.5 35.7372 13.4347L34.6207 13.2003C33.9929 13.0696 33.5284 12.8494 33.2273 12.5398C32.9261 12.2273 32.777 11.8324 32.7798 11.3551C32.777 10.9517 32.8864 10.6023 33.108 10.3068C33.3324 10.0085 33.6435 9.77841 34.0412 9.61648C34.4418 9.4517 34.9034 9.36932 35.4261 9.36932C36.1932 9.36932 36.7969 9.53267 37.2372 9.85938C37.6804 10.1861 37.9545 10.6278 38.0597 11.1847ZM42.3274 16.1278C41.674 16.1278 41.1129 15.9844 40.6442 15.6974C40.1783 15.4105 39.8189 15.0142 39.5661 14.5085C39.3161 14 39.1911 13.4148 39.1911 12.7528C39.1911 12.0881 39.3189 11.5014 39.5746 10.9929C39.8303 10.4815 40.1911 10.0838 40.657 9.79972C41.1257 9.51278 41.6797 9.36932 42.3189 9.36932C42.8501 9.36932 43.3203 9.46733 43.7294 9.66335C44.1413 9.85653 44.4695 10.1307 44.7138 10.4858C44.9581 10.8381 45.0973 11.25 45.1314 11.7216H43.657C43.5973 11.4062 43.4553 11.1435 43.2308 10.9332C43.0092 10.7202 42.7124 10.6136 42.3402 10.6136C42.0249 10.6136 41.7479 10.6989 41.5092 10.8693C41.2706 11.0369 41.0845 11.2784 40.951 11.5938C40.8203 11.9091 40.755 12.2869 40.755 12.7273C40.755 13.1733 40.8203 13.5568 40.951 13.8778C41.0817 14.196 41.2649 14.4418 41.5007 14.6151C41.7393 14.7855 42.0192 14.8707 42.3402 14.8707C42.5675 14.8707 42.7706 14.8281 42.9496 14.7429C43.1314 14.6548 43.2834 14.5284 43.4055 14.3636C43.5277 14.1989 43.6115 13.9986 43.657 13.7628H45.1314C45.0945 14.2259 44.9581 14.6364 44.7223 14.9943C44.4865 15.3494 44.1655 15.6278 43.7592 15.8295C43.353 16.0284 42.8757 16.1278 42.3274 16.1278ZM49.2532 16.1278C48.614 16.1278 48.06 15.9872 47.5913 15.706C47.1225 15.4247 46.7589 15.0312 46.5004 14.5256C46.2447 14.0199 46.1168 13.429 46.1168 12.7528C46.1168 12.0767 46.2447 11.4844 46.5004 10.9759C46.7589 10.4673 47.1225 10.0724 47.5913 9.79119C48.06 9.50994 48.614 9.36932 49.2532 9.36932C49.8924 9.36932 50.4464 9.50994 50.9151 9.79119C51.3839 10.0724 51.7461 10.4673 52.0018 10.9759C52.2603 11.4844 52.3896 12.0767 52.3896 12.7528C52.3896 13.429 52.2603 14.0199 52.0018 14.5256C51.7461 15.0312 51.3839 15.4247 50.9151 15.706C50.4464 15.9872 49.8924 16.1278 49.2532 16.1278ZM49.2617 14.892C49.6083 14.892 49.8981 14.7969 50.131 14.6065C50.364 14.4134 50.5373 14.1548 50.6509 13.831C50.7674 13.5071 50.8256 13.1463 50.8256 12.7486C50.8256 12.348 50.7674 11.9858 50.6509 11.6619C50.5373 11.3352 50.364 11.0753 50.131 10.8821C49.8981 10.6889 49.6083 10.5923 49.2617 10.5923C48.9066 10.5923 48.6112 10.6889 48.3754 10.8821C48.1424 11.0753 47.9677 11.3352 47.8512 11.6619C47.7376 11.9858 47.6808 12.348 47.6808 12.7486C47.6808 13.1463 47.7376 13.5071 47.8512 13.831C47.9677 14.1548 48.1424 14.4134 48.3754 14.6065C48.6112 14.7969 48.9066 14.892 49.2617 14.892ZM55.2415 12.1648V16H53.6989V9.45455H55.1733V10.5668H55.25C55.4006 10.2003 55.6406 9.90909 55.9702 9.69318C56.3026 9.47727 56.7131 9.36932 57.2017 9.36932C57.6534 9.36932 58.0469 9.46591 58.3821 9.65909C58.7202 9.85227 58.9815 10.1321 59.1662 10.4986C59.3537 10.8651 59.446 11.3097 59.4432 11.8324V16H57.9006V12.071C57.9006 11.6335 57.7869 11.2912 57.5597 11.044C57.3352 10.7969 57.0241 10.6733 56.6264 10.6733C56.3565 10.6733 56.1165 10.733 55.9062 10.8523C55.6989 10.9687 55.5355 11.1378 55.4162 11.3594C55.2997 11.581 55.2415 11.8494 55.2415 12.1648ZM62.554 12.1648V16H61.0114V9.45455H62.4858V10.5668H62.5625C62.7131 10.2003 62.9531 9.90909 63.2827 9.69318C63.6151 9.47727 64.0256 9.36932 64.5142 9.36932C64.9659 9.36932 65.3594 9.46591 65.6946 9.65909C66.0327 9.85227 66.294 10.1321 66.4787 10.4986C66.6662 10.8651 66.7585 11.3097 66.7557 11.8324V16H65.2131V12.071C65.2131 11.6335 65.0994 11.2912 64.8722 11.044C64.6477 10.7969 64.3366 10.6733 63.9389 10.6733C63.669 10.6733 63.429 10.733 63.2188 10.8523C63.0114 10.9687 62.848 11.1378 62.7287 11.3594C62.6122 11.581 62.554 11.8494 62.554 12.1648ZM71.2216 16.1278C70.5653 16.1278 69.9986 15.9915 69.5213 15.7188C69.0469 15.4432 68.6818 15.054 68.4261 14.5511C68.1705 14.0455 68.0426 13.4503 68.0426 12.7656C68.0426 12.0923 68.1705 11.5014 68.4261 10.9929C68.6847 10.4815 69.0455 10.0838 69.5085 9.79972C69.9716 9.51278 70.5156 9.36932 71.1406 9.36932C71.544 9.36932 71.9247 9.43466 72.2827 9.56534C72.6435 9.69318 72.9616 9.89205 73.2372 10.1619C73.5156 10.4318 73.7344 10.7756 73.8935 11.1932C74.0526 11.608 74.1321 12.1023 74.1321 12.6761V13.1491H68.767V12.1094H72.6534C72.6506 11.8139 72.5866 11.5511 72.4616 11.321C72.3366 11.0881 72.1619 10.9048 71.9375 10.7713C71.7159 10.6378 71.4574 10.571 71.1619 10.571C70.8466 10.571 70.5696 10.6477 70.331 10.8011C70.0923 10.9517 69.9063 11.1506 69.7727 11.3977C69.642 11.642 69.5753 11.9105 69.5724 12.2031V13.1108C69.5724 13.4915 69.642 13.8182 69.7812 14.0909C69.9205 14.3608 70.1151 14.5682 70.3651 14.7131C70.6151 14.8551 70.9077 14.9261 71.2429 14.9261C71.4673 14.9261 71.6705 14.8949 71.8523 14.8324C72.0341 14.767 72.1918 14.6719 72.3253 14.5469C72.4588 14.4219 72.5597 14.267 72.6278 14.0824L74.0682 14.2443C73.9773 14.625 73.804 14.9574 73.5483 15.2415C73.2955 15.5227 72.9716 15.7415 72.5767 15.8977C72.1818 16.0511 71.7301 16.1278 71.2216 16.1278ZM78.2923 16.1278C77.6388 16.1278 77.0778 15.9844 76.609 15.6974C76.1431 15.4105 75.7837 15.0142 75.5309 14.5085C75.2809 14 75.1559 13.4148 75.1559 12.7528C75.1559 12.0881 75.2837 11.5014 75.5394 10.9929C75.7951 10.4815 76.1559 10.0838 76.6218 9.79972C77.0906 9.51278 77.6445 9.36932 78.2837 9.36932C78.815 9.36932 79.2852 9.46733 79.6942 9.66335C80.1062 9.85653 80.4343 10.1307 80.6786 10.4858C80.9229 10.8381 81.0621 11.25 81.0962 11.7216H79.6218C79.5621 11.4062 79.4201 11.1435 79.1957 10.9332C78.9741 10.7202 78.6772 10.6136 78.305 10.6136C77.9897 10.6136 77.7127 10.6989 77.4741 10.8693C77.2354 11.0369 77.0494 11.2784 76.9158 11.5938C76.7852 11.9091 76.7198 12.2869 76.7198 12.7273C76.7198 13.1733 76.7852 13.5568 76.9158 13.8778C77.0465 14.196 77.2298 14.4418 77.4656 14.6151C77.7042 14.7855 77.984 14.8707 78.305 14.8707C78.5323 14.8707 78.7354 14.8281 78.9144 14.7429C79.0962 14.6548 79.2482 14.5284 79.3704 14.3636C79.4925 14.1989 79.5763 13.9986 79.6218 13.7628H81.0962C81.0593 14.2259 80.9229 14.6364 80.6871 14.9943C80.4513 15.3494 80.1303 15.6278 79.7241 15.8295C79.3178 16.0284 78.8406 16.1278 78.2923 16.1278ZM85.6314 9.45455V10.6477H81.8686V9.45455H85.6314ZM82.7976 7.88636H84.3402V14.0312C84.3402 14.2386 84.3714 14.3977 84.4339 14.5085C84.4993 14.6165 84.5845 14.6903 84.6896 14.7301C84.7947 14.7699 84.9112 14.7898 85.0391 14.7898C85.1357 14.7898 85.2237 14.7827 85.3033 14.7685C85.3857 14.7543 85.4482 14.7415 85.4908 14.7301L85.7507 15.9361C85.6683 15.9645 85.5504 15.9957 85.397 16.0298C85.2464 16.0639 85.0618 16.0838 84.843 16.0895C84.4567 16.1009 84.1087 16.0426 83.799 15.9148C83.4893 15.7841 83.2436 15.5824 83.0618 15.3097C82.8828 15.0369 82.7947 14.696 82.7976 14.2869V7.88636ZM89.7489 16.1278C89.0927 16.1278 88.5259 15.9915 88.0487 15.7188C87.5742 15.4432 87.2092 15.054 86.9535 14.5511C86.6978 14.0455 86.57 13.4503 86.57 12.7656C86.57 12.0923 86.6978 11.5014 86.9535 10.9929C87.212 10.4815 87.5728 10.0838 88.0359 9.79972C88.4989 9.51278 89.043 9.36932 89.668 9.36932C90.0714 9.36932 90.4521 9.43466 90.81 9.56534C91.1708 9.69318 91.489 9.89205 91.7646 10.1619C92.043 10.4318 92.2617 10.7756 92.4208 11.1932C92.5799 11.608 92.6594 12.1023 92.6594 12.6761V13.1491H87.2944V12.1094H91.1808C91.1779 11.8139 91.114 11.5511 90.989 11.321C90.864 11.0881 90.6893 10.9048 90.4648 10.7713C90.2433 10.6378 89.9847 10.571 89.6893 10.571C89.3739 10.571 89.0969 10.6477 88.8583 10.8011C88.6197 10.9517 88.4336 11.1506 88.3001 11.3977C88.1694 11.642 88.1026 11.9105 88.0998 12.2031V13.1108C88.0998 13.4915 88.1694 13.8182 88.3086 14.0909C88.4478 14.3608 88.6424 14.5682 88.8924 14.7131C89.1424 14.8551 89.435 14.9261 89.7702 14.9261C89.9947 14.9261 90.1978 14.8949 90.3796 14.8324C90.5614 14.767 90.7191 14.6719 90.8526 14.5469C90.9862 14.4219 91.087 14.267 91.1552 14.0824L92.5955 14.2443C92.5046 14.625 92.3313 14.9574 92.0756 15.2415C91.8228 15.5227 91.4989 15.7415 91.104 15.8977C90.7092 16.0511 90.2575 16.1278 89.7489 16.1278ZM96.3935 16.1151C95.8793 16.1151 95.419 15.983 95.0128 15.7188C94.6065 15.4545 94.2855 15.071 94.0497 14.5682C93.8139 14.0653 93.696 13.4545 93.696 12.7358C93.696 12.0085 93.8153 11.3949 94.054 10.8949C94.2955 10.392 94.6207 10.0128 95.0298 9.7571C95.4389 9.49858 95.8949 9.36932 96.3977 9.36932C96.7813 9.36932 97.0966 9.43466 97.3438 9.56534C97.5909 9.69318 97.7869 9.84801 97.9318 10.0298C98.0767 10.2088 98.1889 10.3778 98.2685 10.5369H98.3324V7.27273H99.8793V16H98.3622V14.9688H98.2685C98.1889 15.1278 98.0739 15.2969 97.9233 15.4759C97.7727 15.652 97.5739 15.8026 97.3267 15.9276C97.0795 16.0526 96.7685 16.1151 96.3935 16.1151ZM96.8239 14.8494C97.1506 14.8494 97.429 14.7614 97.6591 14.5852C97.8892 14.4062 98.0639 14.1577 98.1832 13.8395C98.3026 13.5213 98.3622 13.1506 98.3622 12.7273C98.3622 12.304 98.3026 11.9361 98.1832 11.6236C98.0668 11.3111 97.8935 11.0682 97.6634 10.8949C97.4361 10.7216 97.1563 10.6349 96.8239 10.6349C96.4801 10.6349 96.1932 10.7244 95.9631 10.9034C95.733 11.0824 95.5597 11.3295 95.4432 11.6449C95.3267 11.9602 95.2685 12.321 95.2685 12.7273C95.2685 13.1364 95.3267 13.5014 95.4432 13.8224C95.5625 14.1406 95.7372 14.392 95.9673 14.5767C96.2003 14.7585 96.4858 14.8494 96.8239 14.8494Z" fill="#B42318"/>
</g>
</svg>
