<svg width="23" height="40" viewBox="0 0 23 40" fill="none" xmlns="http://www.w3.org/2000/svg">
<path d="M19.2324 0.301514H3.79125C3.29624 0.30142 2.80606 0.398874 2.34873 0.588306C1.8914 0.777738 1.47588 1.05544 1.12592 1.40553C0.775965 1.75562 0.498426 2.17124 0.309167 2.62864C0.119908 3.08605 0.0226384 3.57626 0.0229199 4.07127V39.4718H23V4.07127C23.0003 3.57632 22.903 3.08616 22.7138 2.62881C22.5246 2.17145 22.2471 1.75586 21.8972 1.40578C21.5474 1.0557 21.1319 0.777985 20.6747 0.588511C20.2174 0.399037 19.7273 0.301514 19.2324 0.301514Z" fill="url(#paint0_linear_1496_12896)"/>
<path d="M3.79125 0.301514H19.2324C19.7273 0.301514 20.2174 0.399037 20.6747 0.588511C21.1319 0.777985 21.5474 1.0557 21.8972 1.40578C22.2471 1.75586 22.5246 2.17145 22.7138 2.62881C22.903 3.08616 23.0003 3.57632 23 4.07127V39.4718H0.0229199V4.07127C0.0227323 3.57629 0.120065 3.08611 0.309357 2.62875C0.498649 2.17139 0.776193 1.75581 1.12613 1.40574C1.47607 1.05566 1.89155 0.777963 2.34884 0.588497C2.80613 0.399032 3.29626 0.301514 3.79125 0.301514ZM0.237192 39.2576H22.7857V4.07127C22.7852 3.12884 22.4107 2.22514 21.7445 1.55855C21.0783 0.891948 20.1748 0.516921 19.2324 0.515785H3.79125C2.8487 0.516731 1.94504 0.891675 1.27869 1.55829C0.612341 2.22491 0.237759 3.12872 0.237192 4.07127V39.2576Z" fill="url(#paint1_linear_1496_12896)"/>
<path d="M3.28101 3.47705H19.7407C20.2053 3.47705 20.582 3.85375 20.582 4.31842V9.68736C20.582 10.152 20.2053 10.5287 19.7407 10.5287H3.28101C2.81633 10.5287 2.43964 10.152 2.43964 9.68736V4.31842C2.43964 3.85375 2.81633 3.47705 3.28101 3.47705Z" fill="url(#paint2_linear_1496_12896)"/>
<path d="M12.4295 32.7758L11.501 27.8732H13.9551L10.1753 20.313L10.9824 25.9433H8.38401L12.4295 32.7758ZM13.5837 27.6411H11.2267L11.9609 31.5308L8.78684 26.1726H11.2474L10.6046 21.6843L13.5837 27.6411Z" fill="#EB3540"/>
<defs>
<linearGradient id="paint0_linear_1496_12896" x1="11.5115" y1="-31.1679" x2="11.5115" y2="28.2047" gradientUnits="userSpaceOnUse">
<stop stop-color="#EB3540"/>
<stop offset="1" stop-color="#151924"/>
</linearGradient>
<linearGradient id="paint1_linear_1496_12896" x1="18.126" y1="-3.1804" x2="7.93669" y2="34.87" gradientUnits="userSpaceOnUse">
<stop stop-color="#EB3540"/>
<stop offset="1" stop-color="#151924"/>
</linearGradient>
<linearGradient id="paint2_linear_1496_12896" x1="11.5105" y1="4.97124" x2="11.5105" y2="20.0403" gradientUnits="userSpaceOnUse">
<stop stop-color="#EB3540"/>
<stop offset="1" stop-color="#151924"/>
</linearGradient>
</defs>
</svg>
