<svg width="24" height="24" viewBox="0 0 24 24" fill="none" xmlns="http://www.w3.org/2000/svg">
<path opacity="0.4" d="M18.6892 8.89996V13.27L20.2992 14.91V18.3174H3.69922V14.91L5.30922 13.27V8.89996C5.30922 5.20996 8.30922 2.20996 11.9992 2.20996C12.6892 2.20996 13.3492 2.30996 13.9692 2.50996C13.5992 3.10996 13.3992 3.80996 13.3992 4.55996C13.3992 6.78996 15.2092 8.58996 17.4292 8.58996C17.8592 8.58996 18.2792 8.51996 18.6692 8.39996C18.6792 8.55996 18.6892 8.72996 18.6892 8.89996Z" fill="black"/>
<path d="M18.3894 6.8999C18.0894 7.02002 17.7695 7.08984 17.4294 7.08984C16.0393 7.08984 14.8994 5.95996 14.8994 4.56006C14.8994 4.02002 15.0693 3.53027 15.3494 3.12012C15.8093 2.47021 16.5693 2.04004 17.4294 2.04004C18.8293 2.04004 19.9595 3.16992 19.9595 4.56006C19.9595 5.62012 19.3093 6.52002 18.3894 6.8999Z" fill="black"/>
<path d="M15.8894 18.3198H14.3894C14.2495 19.52 13.2395 20.46 11.9995 20.46C10.7595 20.46 9.74951 19.52 9.60938 18.3198H8.10938C8.25952 20.3501 9.92944 21.96 11.9995 21.96C14.0696 21.96 15.7495 20.3501 15.8894 18.3198Z" fill="black"/>
</svg>
