<svg width="49" height="49" viewBox="0 0 49 49" fill="none" xmlns="http://www.w3.org/2000/svg">
<g clip-path="url(#clip0_1473_11579)">
<circle cx="24.8559" cy="24.8549" r="24.1449" fill="#101828"/>
<path d="M22.8536 33.5609L28.6989 23.6641H24.6004L25.7762 15.4502L20.3008 26.4251H24.1968L22.8536 33.5609Z" fill="url(#paint0_linear_1473_11579)"/>
<path d="M23.1774 39.9371V45.8738C23.1774 46.2253 23.3167 46.5624 23.5648 46.8109C23.8128 47.0594 24.1491 47.199 24.4999 47.199C24.6739 47.1995 24.8463 47.1656 25.0072 47.0993C25.1681 47.0329 25.3143 46.9354 25.4375 46.8123C25.5607 46.6892 25.6585 46.5429 25.7252 46.3819C25.7919 46.2208 25.8262 46.0482 25.8262 45.8738V39.9371C29.7965 39.5954 33.4816 37.7305 36.1126 34.7315C38.7436 31.7325 40.1171 27.8312 39.9465 23.8418C39.7759 19.8524 38.0743 16.0831 35.1969 13.3207C32.3195 10.5583 28.4886 9.01611 24.5038 9.01611C20.5189 9.01611 16.6881 10.5583 13.8107 13.3207C10.9333 16.0831 9.23169 19.8524 9.06106 23.8418C8.89044 27.8312 10.2639 31.7325 12.8949 34.7315C15.5259 37.7305 19.2111 39.5954 23.1813 39.9371H23.1774ZM24.2079 11.4914C25.962 11.4538 27.7056 11.7723 29.3336 12.4277C30.9617 13.0831 32.4406 14.0619 33.6812 15.3051C34.9219 16.5483 35.8986 18.0302 36.5527 19.6616C37.2067 21.2931 37.5246 23.0403 37.487 24.798C37.3352 31.7323 31.7105 37.3673 24.788 37.5208C23.0341 37.5578 21.2908 37.2389 19.6631 36.5832C18.0354 35.9274 16.557 34.9485 15.3167 33.7052C14.0765 32.4619 13.1001 30.98 12.4464 29.3487C11.7926 27.7173 11.475 25.9703 11.5127 24.2128C11.6646 17.2812 17.2893 11.6448 24.2079 11.4914Z" fill="url(#paint1_linear_1473_11579)"/>
<g style="mix-blend-mode:overlay">
<path d="M39.095 24.4611C39.1009 22.5619 38.7286 20.6806 37.9999 18.9275C37.2712 17.1743 36.2007 15.5844 34.8512 14.2509C32.084 11.5405 28.3681 10.0229 24.4986 10.0229C20.629 10.0229 16.9132 11.5405 14.146 14.2509C12.801 15.5917 11.7338 17.1856 11.0055 18.9411C10.2772 20.6965 9.90234 22.5789 9.90234 24.4799C9.90234 26.381 10.2772 28.2634 11.0055 30.0188C11.7338 31.7742 12.801 33.3682 14.146 34.709C16.8139 37.3824 20.4146 38.9116 24.1871 38.9733V45.7918C24.1871 45.8746 24.2199 45.9539 24.2783 46.0125C24.3368 46.071 24.416 46.1039 24.4986 46.1039C24.5812 46.1039 24.6604 46.071 24.7188 46.0125C24.7772 45.9539 24.8101 45.8746 24.8101 45.7918V38.9733C28.5826 38.9116 32.1833 37.3824 34.8512 34.709C36.2005 33.3675 37.2705 31.7708 37.999 30.0116C38.7275 28.2524 39.1001 26.3657 39.095 24.4611ZM24.4986 38.353C22.659 38.3617 20.8359 38.0053 19.1345 37.3042C17.4331 36.6031 15.8872 35.5712 14.5859 34.2681C13.2995 32.985 12.2788 31.4599 11.5822 29.7804C10.8857 28.1009 10.5271 26.3 10.5271 24.4812C10.5271 22.6625 10.8857 20.8616 11.5822 19.1821C12.2788 17.5026 13.2995 15.9775 14.5859 14.6944C17.2364 12.0999 20.7947 10.6474 24.4999 10.6474C28.2051 10.6474 31.7633 12.0999 34.4138 14.6944C35.7007 15.9772 36.7219 17.5022 37.4187 19.1818C38.1155 20.8613 38.4742 22.6623 38.4742 24.4812C38.4742 26.3002 38.1155 28.1012 37.4187 29.7807C36.7219 31.4603 35.7007 32.9853 34.4138 34.2681C33.1124 35.5716 31.566 36.6037 29.8642 37.3049C28.1623 38.006 26.3386 38.3622 24.4986 38.353Z" fill="#9CFFDB"/>
</g>
</g>
<defs>
<linearGradient id="paint0_linear_1473_11579" x1="24.4992" y1="15.6661" x2="24.4992" y2="85.3465" gradientUnits="userSpaceOnUse">
<stop stop-color="#35EBB0"/>
<stop offset="1" stop-color="#151924"/>
</linearGradient>
<linearGradient id="paint1_linear_1473_11579" x1="24.4999" y1="15.666" x2="24.4999" y2="85.3464" gradientUnits="userSpaceOnUse">
<stop stop-color="#35EBB0"/>
<stop offset="1" stop-color="#151924"/>
</linearGradient>
<clipPath id="clip0_1473_11579">
<rect width="49" height="49" fill="white"/>
</clipPath>
</defs>
</svg>
