<svg width="16" height="17" viewBox="0 0 16 17" fill="none" xmlns="http://www.w3.org/2000/svg">
<path fill-rule="evenodd" clip-rule="evenodd" d="M5.39902 8.54036C5.39902 9.96259 6.56325 11.1198 8.00065 11.1198C9.43155 11.1198 10.5958 9.96259 10.5958 8.54036C10.5958 7.11168 9.43155 5.95451 8.00065 5.95451C6.56325 5.95451 5.39902 7.11168 5.39902 8.54036ZM11.825 4.57107C12.9633 5.45026 13.9324 6.73673 14.6283 8.34642C14.6803 8.46925 14.6803 8.61147 14.6283 8.72784C13.2364 11.9472 10.7584 13.8737 8.00065 13.8737H7.99415C5.24293 13.8737 2.76488 11.9472 1.37301 8.72784C1.32098 8.61147 1.32098 8.46925 1.37301 8.34642C2.76488 5.12703 5.24293 3.20703 7.99415 3.20703H8.00065C9.37951 3.20703 10.6868 3.68541 11.825 4.57107ZM8.00143 10.1486C8.89249 10.1486 9.62094 9.4246 9.62094 8.53894C9.62094 7.64682 8.89249 6.92278 8.00143 6.92278C7.92338 6.92278 7.84533 6.92925 7.77379 6.94217C7.74777 7.65329 7.16241 8.22217 6.44046 8.22217H6.40794C6.38842 8.32561 6.37541 8.42904 6.37541 8.53894C6.37541 9.4246 7.10387 10.1486 8.00143 10.1486Z" fill="white"/>
</svg>
