<svg width="20" height="20" viewBox="0 0 20 20" fill="none" xmlns="http://www.w3.org/2000/svg">
<path d="M10 20C15.5227 20 20 15.5227 20 10C20 4.47734 15.5227 0 10 0C4.47734 0 0 4.47734 0 10C0 15.5227 4.47734 20 10 20ZM8.02539 12.7711L6.76367 14.0328C6.7117 14.0866 6.64955 14.1295 6.58083 14.159C6.51212 14.1885 6.43822 14.204 6.36344 14.2046C6.28867 14.2053 6.21451 14.191 6.1453 14.1627C6.0761 14.1344 6.01322 14.0925 5.96034 14.0397C5.90747 13.9868 5.86565 13.9239 5.83733 13.8547C5.809 13.7855 5.79475 13.7113 5.79538 13.6366C5.79602 13.5618 5.81154 13.4879 5.84104 13.4192C5.87053 13.3505 5.91342 13.2883 5.96719 13.2363L7.22891 11.9746C7.33513 11.8719 7.47744 11.8151 7.62516 11.8164C7.77289 11.8176 7.9142 11.8769 8.01866 11.9813C8.12312 12.0858 8.18237 12.2271 8.18362 12.3748C8.18488 12.5226 8.12806 12.6649 8.02539 12.7711ZM15.7031 10C15.7031 10.1494 15.6438 10.2927 15.5381 10.3983C15.4325 10.5039 15.2892 10.5633 15.1398 10.5633H13.3559C13.2065 10.5632 13.0634 10.5038 12.9578 10.3982C12.8523 10.2925 12.793 10.1493 12.793 10C12.793 9.85068 12.8523 9.70746 12.9578 9.60184C13.0634 9.49621 13.2065 9.43682 13.3559 9.43672H15.1398C15.2892 9.43672 15.4325 9.49606 15.5381 9.6017C15.6438 9.70734 15.7031 9.85061 15.7031 10ZM11.9746 7.22891L13.2363 5.96719C13.2883 5.91342 13.3505 5.87053 13.4192 5.84104C13.4879 5.81154 13.5618 5.79602 13.6366 5.79538C13.7113 5.79475 13.7855 5.809 13.8547 5.83733C13.9239 5.86565 13.9868 5.90747 14.0397 5.96034C14.0925 6.01322 14.1344 6.0761 14.1627 6.1453C14.191 6.21451 14.2053 6.28867 14.2046 6.36344C14.204 6.43822 14.1885 6.51212 14.159 6.58083C14.1295 6.64955 14.0866 6.7117 14.0328 6.76367L12.7711 8.02539C12.6649 8.12806 12.5226 8.18488 12.3748 8.18362C12.2271 8.18237 12.0858 8.12312 11.9813 8.01866C11.8769 7.9142 11.8176 7.77289 11.8164 7.62516C11.8151 7.47744 11.8719 7.33513 11.9746 7.22891ZM11.9746 11.9746C12.0803 11.8692 12.2236 11.81 12.3729 11.81C12.5222 11.81 12.6654 11.8692 12.7711 11.9746L14.0328 13.2363C14.0866 13.2883 14.1295 13.3505 14.159 13.4192C14.1885 13.4879 14.204 13.5618 14.2046 13.6366C14.2053 13.7113 14.191 13.7855 14.1627 13.8547C14.1344 13.9239 14.0925 13.9868 14.0397 14.0397C13.9868 14.0925 13.9239 14.1344 13.8547 14.1627C13.7855 14.191 13.7113 14.2053 13.6366 14.2046C13.5618 14.204 13.4879 14.1885 13.4192 14.159C13.3505 14.1295 13.2883 14.0866 13.2363 14.0328L11.9746 12.7711C11.8692 12.6654 11.81 12.5222 11.81 12.3729C11.81 12.2236 11.8692 12.0803 11.9746 11.9746ZM9.43555 4.86016C9.43555 4.71076 9.49489 4.56749 9.60053 4.46186C9.70616 4.35622 9.84944 4.29688 9.99883 4.29688C10.1482 4.29688 10.2915 4.35622 10.3971 4.46186C10.5028 4.56749 10.5621 4.71076 10.5621 4.86016V6.64414C10.5621 6.79353 10.5028 6.9368 10.3971 7.04244C10.2915 7.14808 10.1482 7.20742 9.99883 7.20742C9.84944 7.20742 9.70616 7.14808 9.60053 7.04244C9.49489 6.9368 9.43555 6.79353 9.43555 6.64414V4.86016ZM9.43555 13.3559C9.43555 13.2065 9.49489 13.0632 9.60053 12.9576C9.70616 12.8519 9.84944 12.7926 9.99883 12.7926C10.1482 12.7926 10.2915 12.8519 10.3971 12.9576C10.5028 13.0632 10.5621 13.2065 10.5621 13.3559V15.1398C10.5621 15.2892 10.5028 15.4325 10.3971 15.5381C10.2915 15.6438 10.1482 15.7031 9.99883 15.7031C9.84944 15.7031 9.70616 15.6438 9.60053 15.5381C9.49489 15.4325 9.43555 15.2892 9.43555 15.1398V13.3559ZM5.96602 5.96719C6.07165 5.86159 6.21489 5.80226 6.36426 5.80226C6.51362 5.80226 6.65687 5.86159 6.7625 5.96719L8.02422 7.22891C8.12689 7.33513 8.18371 7.47744 8.18245 7.62516C8.18119 7.77289 8.12195 7.9142 8.01749 8.01866C7.91303 8.12312 7.77171 8.18237 7.62399 8.18362C7.47627 8.18488 7.33396 8.12806 7.22773 8.02539L5.96602 6.76367C5.86057 6.65789 5.80146 6.51455 5.80168 6.36519C5.8019 6.21582 5.86143 6.07266 5.96719 5.96719H5.96602ZM4.29688 10C4.29688 9.85061 4.35622 9.70734 4.46186 9.6017C4.56749 9.49606 4.71076 9.43672 4.86016 9.43672H6.64414C6.79346 9.43682 6.93664 9.49621 7.04219 9.60184C7.14774 9.70746 7.20703 9.85068 7.20703 10C7.20703 10.1493 7.14774 10.2925 7.04219 10.3982C6.93664 10.5038 6.79346 10.5632 6.64414 10.5633H4.86016C4.71076 10.5633 4.56749 10.5039 4.46186 10.3983C4.35622 10.2927 4.29688 10.1494 4.29688 10Z" fill="#1DB954"/>
</svg>
