<svg width="21" height="22" viewBox="0 0 21 22" fill="none" xmlns="http://www.w3.org/2000/svg">
<path fill-rule="evenodd" clip-rule="evenodd" d="M6.82812 15.1354C6.82812 14.7212 7.16391 14.3854 7.57812 14.3854H13.3931C13.8073 14.3854 14.1431 14.7212 14.1431 15.1354C14.1431 15.5496 13.8073 15.8854 13.3931 15.8854H7.57812C7.16391 15.8854 6.82812 15.5496 6.82812 15.1354Z" fill="white" fill-opacity="0.47"/>
<path fill-rule="evenodd" clip-rule="evenodd" d="M5.30829 4.97765C4.89575 5.35978 4.52534 5.68822 4.19606 5.97845C4.14958 6.01941 4.10407 6.05949 4.05948 6.09875C3.78057 6.34435 3.53769 6.55824 3.31951 6.75963C2.8142 7.22608 2.49501 7.57827 2.26928 7.97216C1.81678 8.76176 1.64844 9.86897 1.64844 12.713C1.64844 14.7691 1.7715 16.2451 2.0496 17.3153C2.32259 18.3658 2.72955 18.9679 3.26866 19.3548C3.83169 19.759 4.63548 19.9997 5.84588 20.1245C7.0551 20.2491 8.56345 20.25 10.4844 20.25C12.4054 20.25 13.9138 20.2491 15.123 20.1245C16.3334 19.9997 17.1372 19.759 17.7002 19.3548C18.2393 18.9679 18.6463 18.3658 18.9193 17.3153C19.1974 16.2451 19.3204 14.7691 19.3204 12.713C19.3204 9.86889 19.1523 8.76166 18.7 7.97204C18.4744 7.57818 18.1553 7.22601 17.6502 6.75958C17.4318 6.55801 17.1887 6.34391 16.9095 6.09801C16.8652 6.05898 16.8199 6.01914 16.7738 5.97843C16.4445 5.6882 16.0741 5.35976 15.6615 4.97762C15.4173 4.78041 15.1643 4.56703 14.9021 4.34588C14.331 3.86414 13.7162 3.34554 13.0528 2.87695C12.0679 2.18118 11.1759 1.75 10.4564 1.75C9.73931 1.75 8.85949 2.18121 7.88756 2.87803C7.25328 3.33278 6.67305 3.827 6.12786 4.29137C5.84619 4.53128 5.57388 4.76323 5.30829 4.97765ZM7.01356 1.65897C8.01389 0.941785 9.23056 0.25 10.4564 0.25C11.679 0.25 12.9055 0.936325 13.9183 1.6518C14.6343 2.15759 15.3426 2.75449 15.9355 3.25416C16.1884 3.46729 16.4203 3.66274 16.6229 3.82587C16.6364 3.83681 16.6496 3.84822 16.6624 3.86008C17.0685 4.23662 17.4338 4.5607 17.7656 4.85318C17.8106 4.89284 17.8552 4.93205 17.8992 4.97083C18.1771 5.21553 18.4353 5.4429 18.6677 5.65748C19.207 6.15537 19.6608 6.63157 20.0016 7.22646C20.682 8.41434 20.8204 9.92611 20.8204 12.713C20.8204 14.8004 20.6986 16.432 20.3711 17.6926C20.0384 18.9727 19.4789 19.9245 18.5749 20.5734C17.6948 21.2051 16.5788 21.4824 15.2768 21.6166C13.9821 21.75 12.3979 21.75 10.5216 21.75H10.4473C8.57101 21.75 6.98674 21.75 5.69209 21.6166C4.39008 21.4824 3.27406 21.2051 2.39397 20.5734C1.48995 19.9245 0.930472 18.9727 0.597811 17.6926C0.270249 16.432 0.148438 14.8004 0.148438 12.713C0.148438 9.92603 0.28709 8.41424 0.967841 7.22634C1.30874 6.63148 1.76274 6.1553 2.30208 5.65743C2.53427 5.4431 2.79219 5.216 3.06975 4.97161C3.11408 4.93257 3.15892 4.89309 3.20423 4.85316C3.53605 4.56069 3.90143 4.23661 4.30745 3.86008C4.32028 3.84818 4.33352 3.83674 4.34714 3.82577C4.55927 3.65502 4.80683 3.44454 5.07837 3.21367C5.65235 2.72566 6.33348 2.14655 7.01356 1.65897Z" fill="white" fill-opacity="0.47"/>
</svg>
