<svg width="24" height="25" viewBox="0 0 24 25" fill="none" xmlns="http://www.w3.org/2000/svg">
<path fill-rule="evenodd" clip-rule="evenodd" d="M8.32812 16.6354C8.32812 16.2212 8.66391 15.8854 9.07812 15.8854H14.8931C15.3073 15.8854 15.6431 16.2212 15.6431 16.6354C15.6431 17.0496 15.3073 17.3854 14.8931 17.3854H9.07812C8.66391 17.3854 8.32812 17.0496 8.32812 16.6354Z" fill="#FCFCFD"/>
<path fill-rule="evenodd" clip-rule="evenodd" d="M6.80829 6.47765C6.39575 6.85978 6.02534 7.18822 5.69606 7.47845C5.64958 7.51941 5.60407 7.55949 5.55948 7.59875C5.28057 7.84435 5.03769 8.05824 4.81951 8.25963C4.3142 8.72608 3.99501 9.07827 3.76928 9.47216C3.31678 10.2618 3.14844 11.369 3.14844 14.213C3.14844 16.2691 3.2715 17.7451 3.5496 18.8153C3.82259 19.8658 4.22955 20.4679 4.76866 20.8548C5.33169 21.259 6.13548 21.4997 7.34588 21.6245C8.5551 21.7491 10.0635 21.75 11.9844 21.75C13.9054 21.75 15.4138 21.7491 16.623 21.6245C17.8334 21.4997 18.6372 21.259 19.2002 20.8548C19.7393 20.4679 20.1463 19.8658 20.4193 18.8153C20.6974 17.7451 20.8204 16.2691 20.8204 14.213C20.8204 11.3689 20.6523 10.2617 20.2 9.47204C19.9744 9.07818 19.6553 8.72601 19.1502 8.25958C18.9318 8.05801 18.6887 7.84391 18.4095 7.59801C18.3652 7.55898 18.3199 7.51914 18.2738 7.47843C17.9445 7.1882 17.5741 6.85976 17.1615 6.47762C16.9173 6.28041 16.6643 6.06703 16.4021 5.84588C15.831 5.36414 15.2162 4.84554 14.5528 4.37695C13.5679 3.68118 12.6759 3.25 11.9564 3.25C11.2393 3.25 10.3595 3.68121 9.38756 4.37803C8.75328 4.83278 8.17305 5.327 7.62786 5.79137C7.34619 6.03128 7.07388 6.26323 6.80829 6.47765ZM8.51356 3.15897C9.51389 2.44179 10.7306 1.75 11.9564 1.75C13.179 1.75 14.4055 2.43632 15.4183 3.1518C16.1343 3.65759 16.8426 4.25449 17.4355 4.75416C17.6884 4.96729 17.9203 5.16274 18.1229 5.32587C18.1364 5.33681 18.1496 5.34822 18.1624 5.36008C18.5685 5.73662 18.9338 6.0607 19.2656 6.35318C19.3106 6.39284 19.3552 6.43205 19.3992 6.47083C19.6771 6.71553 19.9353 6.9429 20.1677 7.15748C20.707 7.65537 21.1608 8.13157 21.5016 8.72646C22.182 9.91434 22.3204 11.4261 22.3204 14.213C22.3204 16.3004 22.1986 17.932 21.8711 19.1926C21.5384 20.4727 20.9789 21.4245 20.0749 22.0734C19.1948 22.7051 18.0788 22.9824 16.7768 23.1166C15.4821 23.25 13.8979 23.25 12.0216 23.25H11.9473C10.071 23.25 8.48674 23.25 7.19209 23.1166C5.89008 22.9824 4.77406 22.7051 3.89397 22.0734C2.98995 21.4245 2.43047 20.4727 2.09781 19.1926C1.77025 17.932 1.64844 16.3004 1.64844 14.213C1.64844 11.426 1.78709 9.91424 2.46784 8.72634C2.80874 8.13148 3.26274 7.6553 3.80208 7.15743C4.03427 6.9431 4.29219 6.716 4.56975 6.47161C4.61408 6.43257 4.65892 6.39309 4.70423 6.35316C5.03605 6.06069 5.40143 5.73661 5.80745 5.36008C5.82028 5.34818 5.83352 5.33674 5.84714 5.32577C6.05927 5.15502 6.30683 4.94454 6.57837 4.71367C7.15235 4.22566 7.83348 3.64655 8.51356 3.15897Z" fill="#FCFCFD"/>
</svg>
