<svg width="25" height="24" viewBox="0 0 25 24" fill="none" xmlns="http://www.w3.org/2000/svg">
<path fill-rule="evenodd" clip-rule="evenodd" d="M8.82812 16.1354C8.82812 15.7212 9.16391 15.3854 9.57812 15.3854H15.3931C15.8073 15.3854 16.1431 15.7212 16.1431 16.1354C16.1431 16.5496 15.8073 16.8854 15.3931 16.8854H9.57812C9.16391 16.8854 8.82812 16.5496 8.82812 16.1354Z" fill="white" fill-opacity="0.47"/>
<path fill-rule="evenodd" clip-rule="evenodd" d="M7.30829 5.97765C6.89575 6.35978 6.52534 6.68822 6.19606 6.97845C6.14958 7.01941 6.10407 7.05949 6.05948 7.09875C5.78057 7.34435 5.53769 7.55824 5.31951 7.75963C4.8142 8.22608 4.49501 8.57827 4.26928 8.97216C3.81678 9.76176 3.64844 10.869 3.64844 13.713C3.64844 15.7691 3.7715 17.2451 4.0496 18.3153C4.32259 19.3658 4.72955 19.9679 5.26866 20.3548C5.83169 20.759 6.63548 20.9997 7.84588 21.1245C9.0551 21.2491 10.5635 21.25 12.4844 21.25C14.4054 21.25 15.9138 21.2491 17.123 21.1245C18.3334 20.9997 19.1372 20.759 19.7002 20.3548C20.2393 19.9679 20.6463 19.3658 20.9193 18.3153C21.1974 17.2451 21.3204 15.7691 21.3204 13.713C21.3204 10.8689 21.1523 9.76166 20.7 8.97204C20.4744 8.57818 20.1553 8.22601 19.6502 7.75958C19.4318 7.55801 19.1887 7.34391 18.9095 7.09801C18.8652 7.05898 18.8199 7.01914 18.7738 6.97843C18.4445 6.6882 18.0741 6.35976 17.6615 5.97762C17.4173 5.78041 17.1643 5.56703 16.9021 5.34588C16.331 4.86414 15.7162 4.34554 15.0528 3.87695C14.0679 3.18118 13.1759 2.75 12.4564 2.75C11.7393 2.75 10.8595 3.18121 9.88756 3.87803C9.25328 4.33278 8.67305 4.827 8.12786 5.29137C7.84619 5.53128 7.57388 5.76323 7.30829 5.97765ZM9.01356 2.65897C10.0139 1.94179 11.2306 1.25 12.4564 1.25C13.679 1.25 14.9055 1.93632 15.9183 2.6518C16.6343 3.15759 17.3426 3.75449 17.9355 4.25416C18.1884 4.46729 18.4203 4.66274 18.6229 4.82587C18.6364 4.83681 18.6496 4.84822 18.6624 4.86008C19.0685 5.23662 19.4338 5.5607 19.7656 5.85318C19.8106 5.89284 19.8552 5.93205 19.8992 5.97083C20.1771 6.21553 20.4353 6.4429 20.6677 6.65748C21.207 7.15537 21.6608 7.63157 22.0016 8.22646C22.682 9.41434 22.8204 10.9261 22.8204 13.713C22.8204 15.8004 22.6986 17.432 22.3711 18.6926C22.0384 19.9727 21.4789 20.9245 20.5749 21.5734C19.6948 22.2051 18.5788 22.4824 17.2768 22.6166C15.9821 22.75 14.3979 22.75 12.5216 22.75H12.4473C10.571 22.75 8.98674 22.75 7.69209 22.6166C6.39008 22.4824 5.27406 22.2051 4.39397 21.5734C3.48995 20.9245 2.93047 19.9727 2.59781 18.6926C2.27025 17.432 2.14844 15.8004 2.14844 13.713C2.14844 10.926 2.28709 9.41424 2.96784 8.22634C3.30874 7.63148 3.76274 7.1553 4.30208 6.65743C4.53427 6.4431 4.79219 6.216 5.06975 5.97161C5.11408 5.93257 5.15892 5.89309 5.20423 5.85316C5.53605 5.56069 5.90143 5.23661 6.30745 4.86008C6.32028 4.84818 6.33352 4.83674 6.34714 4.82577C6.55927 4.65502 6.80683 4.44454 7.07837 4.21367C7.65235 3.72566 8.33348 3.14655 9.01356 2.65897Z" fill="white" fill-opacity="0.47"/>
</svg>
