<svg width="16" height="22" viewBox="0 0 16 22" fill="none" xmlns="http://www.w3.org/2000/svg">
<path opacity="0.4" fill-rule="evenodd" clip-rule="evenodd" d="M13.4314 3.119C11.9504 1.591 10.0214 0.75 7.99944 0.75C5.97744 0.75 4.04744 1.592 2.56544 3.121C1.06144 4.672 0.235442 6.756 0.300442 8.838C0.404442 12.182 2.66644 14.623 4.66244 16.776C6.18544 18.418 7.49944 19.836 7.49944 21.25H8.49944C8.49944 19.792 9.81644 18.392 11.3404 16.77C13.3344 14.649 15.5954 12.245 15.6994 8.838C15.7634 6.755 14.9364 4.67 13.4314 3.119Z" fill="#8A5802"/>
<path d="M5.35156 8.8502C5.35156 10.3112 6.54056 11.5002 8.00156 11.5002C9.46256 11.5002 10.6516 10.3112 10.6516 8.8502C10.6516 7.3892 9.46256 6.2002 8.00156 6.2002C6.54056 6.2002 5.35156 7.3892 5.35156 8.8502Z" fill="#8A5802"/>
</svg>
