<svg width="46" height="44" viewBox="0 0 46 44" fill="none" xmlns="http://www.w3.org/2000/svg">
<path d="M44.221 0C51.6671 28.9031 33.7719 26.142 27.5821 44C22.4649 40.9324 19.4007 38.7528 16.4286 34.3035H1.75056C3.34282 34.4886 4.93749 34.6726 6.49993 34.8565V38.5067H17.1638C19.2471 40.8075 20.7182 42.219 23.4454 43.9072H0.00390625V20.0978C7.35813 20.0978 13.2414 20.1583 20.5957 20.1583C20.1972 22.1224 20.1359 23.9628 20.3197 25.4352C14.3135 25.4352 12.4749 25.4958 6.49993 25.4958V29.6078C12.1383 29.6078 15.6008 29.3319 21.2392 29.3319C21.8213 31.6024 24.61 34.9776 27.1223 36.3582C31.5968 26.8467 38.5215 27.8288 42.0146 20.9252L35.5186 20.6175L40.5134 10.3694L27.7046 24.5761L33.1592 24.8235L26.1724 33.5985C12.9965 15.0663 41.3712 7.82425 44.221 0Z" fill="url(#paint0_linear_1415_12540)"/>
<defs>
<linearGradient id="paint0_linear_1415_12540" x1="0.976596" y1="44.8821" x2="45.0684" y2="0.848316" gradientUnits="userSpaceOnUse">
<stop stop-color="#0091BF"/>
<stop offset="1" stop-color="#00AA6E"/>
</linearGradient>
</defs>
</svg>
