<svg width="32" height="32" viewBox="0 0 32 32" fill="none" xmlns="http://www.w3.org/2000/svg">
<g clip-path="url(#clip0_1587_13308)">
<path d="M23.7383 14.1704L22.7217 14.7573C22.8117 15.1951 22.8545 15.5996 22.8545 16C22.8545 16.4004 22.8117 16.8049 22.7218 17.2427L23.7384 17.8296C23.9133 17.9307 24.041 18.0971 24.0933 18.2921C24.1455 18.4873 24.1182 18.6952 24.0172 18.8702L22.4937 21.5088C22.2833 21.8732 21.8176 21.998 21.4532 21.7876L20.4459 21.206C19.8145 21.7416 19.0816 22.1602 18.2843 22.4406V23.6172C18.2843 24.0379 17.9432 24.3789 17.5226 24.3789H14.4757C14.055 24.3789 13.714 24.0379 13.714 23.6172V22.4406C12.9166 22.1602 12.1837 21.7416 11.5524 21.206L10.545 21.7876C10.1807 21.998 9.71479 21.8731 9.5045 21.5088L7.98106 18.8702C7.88006 18.6952 7.85269 18.4873 7.90494 18.2921C7.95725 18.097 8.08491 17.9307 8.25985 17.8296L9.27644 17.2427C9.18641 16.8049 9.1436 16.4004 9.1436 16C9.1436 15.5996 9.18641 15.1951 9.27634 14.7573L8.25975 14.1704C8.08481 14.0693 7.95715 13.9029 7.90484 13.7079C7.85259 13.5127 7.87996 13.3048 7.98096 13.1298L9.5044 10.4912C9.71479 10.1268 10.1807 10.002 10.5449 10.2124L11.5523 10.794C12.1837 10.2584 12.9165 9.83978 13.7139 9.55936V8.38281C13.7139 7.96214 14.0549 7.62109 14.4756 7.62109H17.5225C17.9431 7.62109 18.2842 7.96214 18.2842 8.38281V9.55936C19.0815 9.83978 19.8144 10.2584 20.4458 10.794L21.4531 10.2124C21.8174 10.002 22.2832 10.1269 22.4936 10.4912L24.0171 13.1298C24.1181 13.3048 24.1454 13.5127 24.0932 13.7079C24.0409 13.903 23.9133 14.0693 23.7383 14.1704ZM15.9991 13.7148C14.739 13.7148 13.7139 14.74 13.7139 16C13.7139 17.26 14.739 18.2852 15.9991 18.2852C17.2591 18.2852 18.2842 17.26 18.2842 16C18.2842 14.74 17.2591 13.7148 15.9991 13.7148Z" fill="#98A2B3"/>
<path d="M26.4177 23.7815L25.3405 27.0132C25.2075 27.4123 24.7761 27.628 24.377 27.4949C23.9779 27.3619 23.7622 26.9306 23.8952 26.5314L23.9868 26.2567C23.3033 26.777 22.5667 27.2355 21.7912 27.6202C19.9713 28.5229 17.9688 29 16 29C12.5464 29 9.28702 27.6426 6.82225 25.1777C4.35738 22.713 3 19.4536 3 16C3 14.405 3.33511 12.7709 3.99587 11.1431C4.11602 10.8472 4.40105 10.6678 4.70188 10.6678C4.7973 10.6678 4.89434 10.6858 4.98819 10.7239C5.37798 10.8821 5.56567 11.3264 5.40744 11.7162C4.82081 13.1611 4.52344 14.6023 4.52344 16C4.52344 22.3282 9.67179 27.4766 16 27.4766C18.3227 27.4766 20.6675 26.7039 22.6156 25.3638C22.2432 25.4402 21.864 25.2284 21.7408 24.8588C21.6078 24.4597 21.8234 24.0283 22.2225 23.8953L25.4542 22.818C25.7268 22.7272 26.0289 22.7971 26.2337 23.002C26.4377 23.206 26.509 23.5078 26.4177 23.7815Z" fill="#98A2B3"/>
<path d="M28.004 20.8569C27.8457 21.2468 27.4014 21.4343 27.0117 21.2762C26.6219 21.1179 26.4342 20.6736 26.5924 20.2839C27.179 18.839 27.4764 17.3977 27.4764 16C27.4764 9.67184 22.3281 4.52349 15.9999 4.52349C13.6771 4.52349 11.3324 5.29617 9.38423 6.63629C9.75656 6.55991 10.1358 6.77157 10.2591 7.14126C10.3921 7.5403 10.1764 7.97173 9.77733 8.10478L6.54561 9.18206C6.272 9.27331 5.97011 9.20211 5.76612 8.99802C5.56208 8.79399 5.49083 8.49224 5.58209 8.21853L6.65931 4.98681C6.76575 4.6676 7.06287 4.4657 7.38188 4.46575C7.4617 4.46575 7.54295 4.47839 7.62283 4.505C8.02192 4.63805 8.23759 5.06938 8.10459 5.46852L8.01304 5.7432C8.69655 5.22295 9.43313 4.76444 10.2086 4.37977C12.0285 3.47719 14.0311 3.00005 15.9999 3.00005C19.4535 3.00005 22.7128 4.35743 25.1776 6.8223C27.6425 9.28707 28.9999 12.5465 28.9999 16C28.9999 17.5951 28.6648 19.2292 28.004 20.8569Z" fill="#98A2B3"/>
</g>
<defs>
<clipPath id="clip0_1587_13308">
<rect width="26" height="26" fill="white" transform="matrix(1 0 0 -1 3 29)"/>
</clipPath>
</defs>
</svg>
