<svg width="32" height="32" viewBox="0 0 32 32" fill="none" xmlns="http://www.w3.org/2000/svg">
<g clip-path="url(#clip0_758_11506)">
<rect width="32" height="32" fill="white"/>
<circle cx="16" cy="16" r="16" fill="black"/>
<g clip-path="url(#clip1_758_11506)">
<path d="M21.9535 14.5926L21.1715 15.0441C21.2407 15.3809 21.2736 15.692 21.2736 16C21.2736 16.308 21.2407 16.6191 21.1715 16.9559L21.9535 17.4074C22.0881 17.4851 22.1863 17.6131 22.2265 17.7632C22.2667 17.9133 22.2457 18.0732 22.168 18.2078L20.9961 20.2375C20.8342 20.5178 20.476 20.6138 20.1957 20.452L19.4208 20.0046C18.9351 20.4166 18.3714 20.7386 17.758 20.9543V21.8594C17.758 22.183 17.4957 22.4453 17.1721 22.4453H14.8283C14.5048 22.4453 14.2424 22.183 14.2424 21.8594V20.9543C13.6291 20.7386 13.0653 20.4166 12.5796 20.0046L11.8048 20.452C11.5245 20.6139 11.1661 20.5178 11.0044 20.2375L9.83249 18.2078C9.75479 18.0732 9.73374 17.9133 9.77393 17.7632C9.81417 17.6131 9.91237 17.4851 10.0469 17.4074L10.8289 16.9559C10.7597 16.6191 10.7267 16.308 10.7267 16C10.7267 15.692 10.7597 15.3809 10.8289 15.0441L10.0469 14.5926C9.91229 14.5149 9.81409 14.3869 9.77386 14.2368C9.73366 14.0867 9.75472 13.9268 9.83241 13.7922L11.0043 11.7625C11.1661 11.4821 11.5245 11.3861 11.8047 11.548L12.5796 11.9954C13.0653 11.5834 13.629 11.2614 14.2423 11.0457V10.1406C14.2423 9.81703 14.5047 9.55469 14.8283 9.55469H17.172C17.4956 9.55469 17.758 9.81703 17.758 10.1406V11.0457C18.3713 11.2614 18.9351 11.5834 19.4207 11.9954L20.1956 11.548C20.4758 11.3862 20.8342 11.4822 20.996 11.7625L22.1679 13.7922C22.2456 13.9268 22.2666 14.0867 22.2264 14.2368C22.1862 14.3869 22.0881 14.5149 21.9535 14.5926ZM16.0002 14.2422C15.0309 14.2422 14.2424 15.0307 14.2424 16C14.2424 16.9693 15.0309 17.7578 16.0002 17.7578C16.9694 17.7578 17.758 16.9693 17.758 16C17.758 15.0307 16.9694 14.2422 16.0002 14.2422Z" fill="#FCFCFD"/>
<path d="M24.0136 21.9857L23.185 24.4717C23.0827 24.7787 22.7508 24.9446 22.4438 24.8423C22.1368 24.7399 21.9709 24.4081 22.0732 24.1011L22.1437 23.8898C21.6179 24.29 21.0513 24.6427 20.4548 24.9386C19.0549 25.633 17.5145 26 16 26C13.3434 26 10.8362 24.9559 8.9402 23.0598C7.04414 21.1638 6 18.6566 6 16C6 14.773 6.25777 13.5161 6.76605 12.2639C6.85848 12.0363 7.07773 11.8983 7.30914 11.8983C7.38254 11.8983 7.45719 11.9121 7.52938 11.9414C7.82922 12.0632 7.97359 12.4049 7.85188 12.7048C7.40062 13.8162 7.17188 14.9249 7.17188 16C7.17188 20.8679 11.1321 24.8281 16 24.8281C17.7867 24.8281 19.5904 24.2337 21.0889 23.2029C20.8025 23.2617 20.5108 23.0988 20.416 22.8145C20.3137 22.5075 20.4796 22.1756 20.7866 22.0733L23.2725 21.2446C23.4821 21.1748 23.7145 21.2286 23.8721 21.3862C24.029 21.5431 24.0838 21.7752 24.0136 21.9857Z" fill="#FCFCFD"/>
<path d="M25.2338 19.7361C25.112 20.0359 24.7702 20.1802 24.4704 20.0586C24.1706 19.9368 24.0262 19.5951 24.1479 19.2952C24.5992 18.1838 24.8279 17.0751 24.8279 16C24.8279 11.1322 20.8677 7.17188 15.9998 7.17188C14.2131 7.17188 12.4094 7.76625 10.9109 8.79711C11.1973 8.73836 11.489 8.90117 11.5838 9.18555C11.6861 9.4925 11.5202 9.82438 11.2133 9.92672L8.72732 10.7554C8.51685 10.8256 8.28462 10.7708 8.12771 10.6138C7.97075 10.4569 7.91595 10.2248 7.98615 10.0142L8.81478 7.52828C8.89665 7.28274 9.12521 7.12742 9.3706 7.12746C9.432 7.12746 9.4945 7.13719 9.55595 7.15766C9.86294 7.26 10.0288 7.5918 9.92654 7.89883L9.85611 8.11012C10.3819 7.70992 10.9485 7.35723 11.545 7.06133C12.9449 6.36703 14.4854 6 15.9998 6C18.6565 6 21.1636 7.04414 23.0596 8.9402C24.9557 10.8362 25.9998 13.3434 25.9998 16C25.9998 17.227 25.742 18.4839 25.2338 19.7361Z" fill="#FCFCFD"/>
</g>
</g>
<defs>
<clipPath id="clip0_758_11506">
<rect width="32" height="32" fill="white"/>
</clipPath>
<clipPath id="clip1_758_11506">
<rect width="20" height="20" fill="white" transform="matrix(1 0 0 -1 6 26)"/>
</clipPath>
</defs>
</svg>
