<svg width="22" height="22" viewBox="0 0 22 22" fill="none" xmlns="http://www.w3.org/2000/svg">
<path d="M6.54299 3.60998C7.02964 3.3462 7.63389 3.52747 7.89573 4.01282C8.15822 4.49817 7.9776 5.10372 7.4929 5.36556C5.0837 6.66827 3.58737 9.17297 3.58737 11.9031C3.58737 15.9906 6.91333 19.3165 11.0008 19.3165C15.0886 19.3165 18.4142 15.9906 18.4142 11.9031C18.4142 9.17297 16.9175 6.66827 14.5087 5.36556C14.024 5.10372 13.8433 4.49817 14.1055 4.01282C14.368 3.52747 14.9732 3.34684 15.4579 3.60998C18.5126 5.26159 20.4102 8.43942 20.4102 11.9031C20.4102 17.0912 16.1892 21.3125 11.0008 21.3125C5.81269 21.3125 1.5914 17.0912 1.5914 11.9031C1.5914 8.43877 3.48862 5.2616 6.54299 3.60998Z" fill="#1AA84C"/>
<path d="M11.002 7.43949C10.4507 7.43949 10.004 6.99247 10.004 6.4415V1.68548C10.004 1.13451 10.4507 0.6875 11.002 0.6875C11.5533 0.6875 12 1.13451 12 1.68548V6.4415C12 6.99247 11.5533 7.43949 11.002 7.43949Z" fill="#1AA84C"/>
</svg>
