<svg width="27" height="27" viewBox="0 0 27 27" fill="none" xmlns="http://www.w3.org/2000/svg">
<path fill-rule="evenodd" clip-rule="evenodd" d="M18.7983 11.3311C18.7983 11.893 19.2483 12.3425 19.8108 12.3425C20.3733 12.3425 20.8346 11.893 20.8346 11.3311C20.8346 10.7693 20.3733 10.3085 19.8108 10.3085C19.2483 10.3085 18.7983 10.7693 18.7983 11.3311ZM16.6158 18.1186C15.8171 18.9165 14.7146 19.4109 13.4996 19.4109C12.3183 19.4109 11.2158 18.9502 10.3721 18.1186C9.53958 17.2758 9.07833 16.1745 9.07833 14.9946C9.06708 13.8259 9.52833 12.7246 10.3608 11.8818C11.2046 11.039 12.3183 10.5782 13.4996 10.5782C14.6808 10.5782 15.7946 11.039 16.6271 11.8705C17.4596 12.7134 17.9208 13.8259 17.9208 14.9946C17.9096 16.2195 17.4146 17.3207 16.6158 18.1186ZM13.4996 12.2639C12.7683 12.2639 12.0821 12.5448 11.5533 13.073C11.0358 13.5899 10.7546 14.2754 10.7658 14.9833V14.9946C10.7658 15.725 11.0471 16.4105 11.5646 16.9274C12.0821 17.4444 12.7683 17.7253 13.4996 17.7253C15.0071 17.7253 16.2221 16.5004 16.2333 14.9946C16.2333 14.2641 15.9521 13.5786 15.4346 13.0617C14.9171 12.5448 14.2308 12.2639 13.4996 12.2639Z" fill="#001755"/>
<path opacity="0.4" d="M19.62 7.01595L19.5075 6.76873C19.2038 6.12819 18.855 5.38651 18.6413 4.95949C18.1237 3.94811 17.235 3.38624 16.1438 3.375H10.845C9.75375 3.38624 8.87625 3.94811 8.35875 4.95949C8.13375 5.40899 7.75125 6.21809 7.43625 6.8811L7.36875 7.01595C7.335 7.10585 7.245 7.1508 7.155 7.1508C4.44375 7.1508 2.25 9.35336 2.25 12.0504V18.7254C2.25 21.4224 4.44375 23.625 7.155 23.625H19.845C22.545 23.625 24.75 21.4224 24.75 18.7254V12.0504C24.75 9.35336 22.545 7.1508 19.845 7.1508C19.7437 7.1508 19.665 7.09462 19.62 7.01595Z" fill="#001755"/>
</svg>
