<svg width="25" height="25" viewBox="0 0 25 25" fill="none" xmlns="http://www.w3.org/2000/svg">
<path fill-rule="evenodd" clip-rule="evenodd" d="M12.3445 22.1619C8.65273 22.1619 5.5 21.5874 5.5 19.2867C5.5 16.9859 8.63273 14.8619 12.3445 14.8619C16.0364 14.8619 19.1891 16.9653 19.1891 19.2661C19.1891 21.5659 16.0564 22.1619 12.3445 22.1619Z" stroke="#FCFCFD" stroke-opacity="0.47" stroke-width="1.5" stroke-linecap="round" stroke-linejoin="round"/>
<path fill-rule="evenodd" clip-rule="evenodd" d="M12.3365 11.6737C14.7592 11.6737 16.7229 9.71002 16.7229 7.2873C16.7229 4.86457 14.7592 2.90002 12.3365 2.90002C9.91379 2.90002 7.94924 4.86457 7.94924 7.2873C7.94106 9.70184 9.89106 11.6655 12.3056 11.6737C12.3165 11.6737 12.3265 11.6737 12.3365 11.6737Z" stroke="#FCFCFD" stroke-opacity="0.47" stroke-width="1.5" stroke-linecap="round" stroke-linejoin="round"/>
</svg>
