<svg width="711" height="426" viewBox="0 0 711 426" fill="none" xmlns="http://www.w3.org/2000/svg">
<path d="M398.778 425.554C291.606 425.554 185.132 403.274 107.002 359.155C36.3798 319.272 -1.60295 267.013 0.0518795 211.996C0.916831 183.22 12.455 155.304 34.3235 129.019C56.8449 101.974 89.2626 77.9868 130.725 57.7274C293.959 -22.0473 548.963 -17.9445 699.171 66.8665C769.79 106.746 807.773 159.008 806.121 214.026C805.256 242.798 793.718 270.718 771.85 296.999C749.328 324.044 716.907 348.031 675.448 368.294C597.11 406.593 497.65 425.554 398.778 425.554ZM407.473 3.46718C308.575 3.46718 209.125 22.4341 130.771 60.727C89.5858 80.8493 57.4292 104.611 35.1754 131.346C13.816 157.014 2.56187 184.193 1.71976 212.129C0.110626 265.753 37.5353 316.926 107.11 356.214C185.174 400.297 291.599 422.561 398.71 422.564C497.592 422.564 597.058 403.597 675.412 365.304C716.584 345.185 748.741 321.423 770.991 294.685C792.354 269.02 803.608 241.841 804.45 213.905C806.059 160.278 768.631 109.109 699.057 69.8204C620.992 25.7372 514.571 3.46718 407.473 3.46718Z" fill="#344054"/>
<path d="M400.851 323.192C345.298 323.192 290.104 311.641 249.602 288.771C212.993 268.097 193.305 241.006 194.163 212.488C194.61 197.572 200.587 183.113 211.926 169.476C223.595 155.457 240.407 143.038 261.897 132.518C346.516 91.1635 478.703 93.2916 556.565 137.264C593.174 157.935 612.865 185.025 612.007 213.546C611.56 228.462 605.583 242.922 594.244 256.559C582.576 270.594 565.763 283.013 544.273 293.516C503.666 313.358 452.105 323.189 400.851 323.192ZM405.349 104.595C354.186 104.595 302.723 114.409 262.181 134.222C240.88 144.634 224.241 156.926 212.729 170.778C201.677 184.056 195.851 198.12 195.43 212.557C194.597 240.301 213.963 266.781 249.961 287.106C290.349 309.918 345.416 321.436 400.835 321.44C451.997 321.44 503.46 311.625 544.002 291.809C565.303 281.401 581.942 269.109 593.454 255.273C604.506 241.991 610.332 227.93 610.753 213.477C611.586 185.734 592.221 159.253 556.222 138.925C515.837 116.117 460.767 104.595 405.349 104.595Z" fill="#344054"/>
<path d="M401.892 271.792C372.249 271.792 342.798 265.629 321.187 253.425C301.652 242.396 291.159 227.94 291.603 212.72C291.844 204.763 295.033 197.053 301.068 189.771C307.292 182.29 316.262 175.655 327.731 170.05C372.882 147.983 443.419 149.119 484.967 172.58C504.501 183.612 514.995 198.068 514.548 213.285C514.31 221.246 511.121 228.952 505.082 236.237C498.858 243.718 489.885 250.354 478.419 255.958C456.759 266.569 429.241 271.792 401.892 271.792ZM404.294 155.15C376.991 155.15 349.531 160.373 327.898 170.958C316.533 176.506 307.661 183.074 301.509 190.457C295.614 197.543 292.507 205.047 292.275 212.759C291.828 227.565 302.161 241.691 321.37 252.537C342.912 264.709 372.288 270.858 401.876 270.858C429.179 270.858 456.639 265.636 478.269 255.047C489.637 249.499 498.505 242.935 504.658 235.552C510.556 228.466 513.663 220.962 513.895 213.249C514.342 198.444 504.009 184.317 484.8 173.468C463.245 161.313 433.863 155.163 404.294 155.163V155.15Z" fill="#344054"/>
</svg>
