<svg width="32" height="32" viewBox="0 0 32 32" fill="none" xmlns="http://www.w3.org/2000/svg">
<g clip-path="url(#clip0_1587_13338)">
<path fill-rule="evenodd" clip-rule="evenodd" d="M15.9994 27.9334C9.40607 27.9334 4.05273 22.5801 4.05273 15.9867C4.05273 11.9481 6.06207 8.37474 9.13273 6.21208C9.58473 5.89341 9.69273 5.26941 9.3754 4.81874C9.05807 4.36674 8.43273 4.25874 7.98207 4.57608C4.39673 7.10141 2.05273 11.2721 2.05273 15.9867C2.05273 23.6841 8.30207 29.9334 15.9994 29.9334C16.5514 29.9334 16.9994 29.4854 16.9994 28.9334C16.9994 28.3814 16.5514 27.9334 15.9994 27.9334Z" fill="#98A2B3"/>
<path fill-rule="evenodd" clip-rule="evenodd" d="M16.7707 4.06392C23.0053 4.46126 27.9467 9.65192 27.9467 15.9866C27.9467 19.6279 26.3147 22.8893 23.7427 25.0813C23.3227 25.4399 23.272 26.0719 23.6307 26.4919C23.988 26.9119 24.62 26.9626 25.04 26.6039C28.0427 24.0453 29.9467 20.2359 29.9467 15.9866C29.9467 8.59059 24.1773 2.53192 16.8973 2.06792C16.3467 2.03326 15.8707 2.45192 15.836 3.00259C15.8013 3.55326 16.22 4.02926 16.7707 4.06392Z" fill="#98A2B3"/>
<path fill-rule="evenodd" clip-rule="evenodd" d="M26.3859 25.5797H24.0605V23.2544C24.0605 22.7024 23.6125 22.2544 23.0605 22.2544C22.5085 22.2544 22.0605 22.7024 22.0605 23.2544V26.5797C22.0605 27.1317 22.5085 27.5797 23.0605 27.5797H26.3859C26.9379 27.5797 27.3859 27.1317 27.3859 26.5797C27.3859 26.0277 26.9379 25.5797 26.3859 25.5797Z" fill="#98A2B3"/>
<path fill-rule="evenodd" clip-rule="evenodd" d="M6.38672 5.21729H8.71072V7.54129C8.71072 8.09329 9.15872 8.54129 9.71072 8.54129C10.2627 8.54129 10.7107 8.09329 10.7107 7.54129V4.21729C10.7107 3.66529 10.2641 3.21729 9.71072 3.21729H6.38672C5.83472 3.21729 5.38672 3.66529 5.38672 4.21729C5.38672 4.76929 5.83472 5.21729 6.38672 5.21729Z" fill="#98A2B3"/>
<path fill-rule="evenodd" clip-rule="evenodd" d="M16.3854 8.3252C12.1534 8.3252 8.71875 11.7612 8.71875 15.9919C8.71875 20.2239 12.1534 23.6585 16.3854 23.6585C20.6161 23.6585 24.0521 20.2239 24.0521 15.9919C24.0521 11.7612 20.6161 8.3252 16.3854 8.3252ZM15.0521 12.3252V15.6585C15.0521 15.9239 15.1574 16.1785 15.3454 16.3665L18.0121 19.0332C18.4014 19.4225 19.0361 19.4225 19.4254 19.0332C19.8161 18.6425 19.8161 18.0092 19.4254 17.6185L17.0521 15.2452V12.3252C17.0521 11.7732 16.6041 11.3252 16.0521 11.3252C15.5001 11.3252 15.0521 11.7732 15.0521 12.3252Z" fill="#98A2B3"/>
</g>
<defs>
<clipPath id="clip0_1587_13338">
<rect width="32" height="32" fill="white"/>
</clipPath>
</defs>
</svg>
