<svg width="22" height="22" viewBox="0 0 22 22" fill="none" xmlns="http://www.w3.org/2000/svg">
<path d="M5.91708 13.8539L8.91008 9.9649L12.3241 12.6449L15.2531 8.8649" stroke="white" strokeWidth="1.5" stroke-linecap="round" stroke-linejoin="round"/>
<path fill-rule="evenodd" clip-rule="evenodd" d="M18.6671 1.35001C19.7291 1.35001 20.5891 2.21001 20.5891 3.27201C20.5891 4.33301 19.7291 5.19401 18.6671 5.19401C17.6051 5.19401 16.7451 4.33301 16.7451 3.27201C16.7451 2.21001 17.6051 1.35001 18.6671 1.35001Z" stroke="white" strokeWidth="1.5" stroke-linecap="round" stroke-linejoin="round"/>
<path d="M19.7555 8.26901C19.8885 9.16401 19.9495 10.172 19.9495 11.303C19.9495 18.241 17.6375 20.553 10.6995 20.553C3.76249 20.553 1.44949 18.241 1.44949 11.303C1.44949 4.36601 3.76249 2.05301 10.6995 2.05301C11.8095 2.05301 12.8005 2.11201 13.6825 2.24001" stroke="white" strokeWidth="1.5" stroke-linecap="round" stroke-linejoin="round"/>
</svg>
