<svg width="14" height="12" viewBox="0 0 14 12" fill="none" xmlns="http://www.w3.org/2000/svg">
<path fill-rule="evenodd" clip-rule="evenodd" d="M4.39707 6.00002C4.39707 7.42224 5.5613 8.57941 6.9987 8.57941C8.42959 8.57941 9.59382 7.42224 9.59382 6.00002C9.59382 4.57133 8.42959 3.41416 6.9987 3.41416C5.5613 3.41416 4.39707 4.57133 4.39707 6.00002ZM10.8231 2.03073C11.9613 2.90992 12.9304 4.19638 13.6263 5.80608C13.6784 5.92891 13.6784 6.07113 13.6263 6.18749C12.2345 9.40689 9.75642 11.3334 6.9987 11.3334H6.99219C4.24097 11.3334 1.76293 9.40689 0.371056 6.18749C0.319023 6.07113 0.319023 5.92891 0.371056 5.80608C1.76293 2.58669 4.24097 0.666687 6.99219 0.666687H6.9987C8.37756 0.666687 9.68488 1.14507 10.8231 2.03073ZM6.99948 7.60829C7.89053 7.60829 8.61899 6.88425 8.61899 5.9986C8.61899 5.10648 7.89053 4.38244 6.99948 4.38244C6.92143 4.38244 6.84338 4.3889 6.77184 4.40183C6.74582 5.11294 6.16045 5.68183 5.4385 5.68183H5.40598C5.38647 5.78526 5.37346 5.8887 5.37346 5.9986C5.37346 6.88425 6.10192 7.60829 6.99948 7.60829Z" fill="black"/>
</svg>
