<svg width="25" height="25" viewBox="0 0 25 25" fill="none" xmlns="http://www.w3.org/2000/svg">
<path fill-rule="evenodd" clip-rule="evenodd" d="M9.35156 10.1006C9.35156 8.36041 10.7618 6.9502 12.502 6.9502C14.2414 6.9502 15.6514 8.36061 15.6514 10.1006C15.6514 11.8398 14.2412 13.25 12.502 13.25C10.762 13.25 9.35156 11.84 9.35156 10.1006ZM12.502 8.4502C11.5902 8.4502 10.8516 9.18884 10.8516 10.1006C10.8516 11.0112 11.59 11.75 12.502 11.75C13.4128 11.75 14.1514 11.0114 14.1514 10.1006C14.1514 9.18864 13.4126 8.4502 12.502 8.4502Z" fill="#FCFCFD" fill-opacity="0.47"/>
<path fill-rule="evenodd" clip-rule="evenodd" d="M12.4995 3.25C8.96322 3.25 5.9382 6.449 6.04986 10.0506C6.12884 12.5982 7.73388 14.6184 9.51953 16.5698C9.69886 16.7658 9.88097 16.9622 10.0632 17.1586C10.7578 17.9075 11.4536 18.6578 12.0011 19.3932C12.1755 19.6274 12.3413 19.8682 12.4917 20.1157C12.6464 19.8588 12.8179 19.6095 12.9991 19.3674C13.5494 18.6321 14.2495 17.8878 14.9464 17.1469C15.1264 16.9555 15.3062 16.7644 15.4831 16.5737C17.2652 14.6531 18.8705 12.6561 18.9501 10.0509C19.0601 6.44884 16.0356 3.25 12.4995 3.25ZM13.2495 22.5C13.2495 21.8168 13.5739 21.1027 14.2 20.2663C14.6947 19.6052 15.3176 18.9426 16.0059 18.2103C16.1937 18.0105 16.3864 17.8055 16.5827 17.594C18.3562 15.6825 20.351 13.316 20.4494 10.0967C20.5842 5.68361 16.9166 1.75 12.4995 1.75C8.08264 1.75 4.41375 5.68356 4.55058 10.097C4.64855 13.2569 6.64315 15.6483 8.41291 17.5824C8.61125 17.7992 8.80603 18.0093 8.9959 18.2142C9.68178 18.9541 10.3036 19.625 10.7979 20.2889C11.4278 21.135 11.7495 21.8434 11.7495 22.5H13.2495Z" fill="#FCFCFD" fill-opacity="0.47"/>
</svg>
