<svg width="52" height="49" viewBox="0 0 52 49" fill="none" xmlns="http://www.w3.org/2000/svg">
<g opacity="0.8">
<circle cx="26" cy="25" r="22" fill="#F2F4F7"/>
</g>
<g clip-path="url(#clip0_2195_2576)">
<path d="M29.7254 15.1525H21.908C21.6573 15.1525 21.4092 15.2018 21.1776 15.2977C20.9461 15.3936 20.7357 15.5342 20.5586 15.7115C20.3814 15.8887 20.2409 16.0991 20.1451 16.3307C20.0493 16.5623 20 16.8104 20.0002 17.061V34.9834H31.6328V17.061C31.633 16.8105 31.5837 16.5623 31.4879 16.3308C31.3921 16.0992 31.2517 15.8888 31.0745 15.7116C30.8974 15.5343 30.6871 15.3938 30.4556 15.2978C30.2241 15.2019 29.976 15.1525 29.7254 15.1525Z" fill="url(#paint0_linear_2195_2576)"/>
<path d="M21.908 15.1525H29.7254C29.976 15.1525 30.2241 15.2019 30.4556 15.2978C30.6871 15.3938 30.8974 15.5343 31.0745 15.7116C31.2517 15.8888 31.3921 16.0992 31.4879 16.3308C31.5837 16.5623 31.633 16.8105 31.6328 17.061V34.9834H20.0002V17.061C20.0001 16.8105 20.0493 16.5623 20.1452 16.3307C20.241 16.0992 20.3815 15.8888 20.5587 15.7116C20.7358 15.5343 20.9462 15.3937 21.1777 15.2978C21.4092 15.2019 21.6574 15.1525 21.908 15.1525ZM20.1086 34.8749H31.5243V17.061C31.524 16.5839 31.3345 16.1264 30.9972 15.7889C30.6599 15.4514 30.2025 15.2616 29.7254 15.261H21.908C21.4308 15.2615 20.9733 15.4513 20.6359 15.7888C20.2986 16.1263 20.1089 16.5839 20.1086 17.061V34.8749Z" fill="url(#paint1_linear_2195_2576)"/>
<path d="M21.6511 16.7602H29.9842C30.2194 16.7602 30.4102 16.9509 30.4102 17.1862V19.9043C30.4102 20.1396 30.2194 20.3303 29.9842 20.3303H21.6511C21.4159 20.3303 21.2252 20.1396 21.2252 19.9043V17.1862C21.2252 16.9509 21.4159 16.7602 21.6511 16.7602Z" fill="url(#paint2_linear_2195_2576)"/>
<path d="M26.2823 31.5934L25.8122 29.1113H27.0547L25.1411 25.2838L25.5497 28.1343H24.2342L26.2823 31.5934ZM26.8667 28.9938H25.6734L26.0451 30.9631L24.4382 28.2504H25.6839L25.3584 25.9781L26.8667 28.9938Z" fill="#35EBB0"/>
</g>
<defs>
<linearGradient id="paint0_linear_2195_2576" x1="25.8165" y1="-0.779555" x2="25.8165" y2="29.2791" gradientUnits="userSpaceOnUse">
<stop stop-color="#35EBB0"/>
<stop offset="1" stop-color="#151924"/>
</linearGradient>
<linearGradient id="paint1_linear_2195_2576" x1="29.1653" y1="13.3897" x2="24.0067" y2="32.6536" gradientUnits="userSpaceOnUse">
<stop stop-color="#35EBB0"/>
<stop offset="1" stop-color="#151924"/>
</linearGradient>
<linearGradient id="paint2_linear_2195_2576" x1="25.8175" y1="17.5167" x2="25.8175" y2="25.1457" gradientUnits="userSpaceOnUse">
<stop stop-color="#35EBB0"/>
<stop offset="1" stop-color="#151924"/>
</linearGradient>
<clipPath id="clip0_2195_2576">
<rect width="11.6327" height="19.9834" fill="white" transform="matrix(-1 0 0 1 31.6328 15)"/>
</clipPath>
</defs>
</svg>
