<svg width="52" height="49" viewBox="0 0 52 49" fill="none" xmlns="http://www.w3.org/2000/svg">
<g opacity="0.8">
<circle cx="26" cy="25" r="22" fill="#F2F4F7"/>
</g>
<path opacity="0.4" fill-rule="evenodd" clip-rule="evenodd" d="M31.2702 27.1719C29.4432 27.1719 27.9572 25.6859 27.9572 23.8599C27.9572 22.0329 29.4432 20.5459 31.2702 20.5459H35.4802C34.6022 16.4919 31.8092 14.9609 26.0002 14.9609C18.7642 14.9609 16.1992 17.3269 16.1992 23.9999C16.1992 30.6739 18.7642 33.0389 26.0002 33.0389C31.9422 33.0389 34.7302 31.4389 35.5382 27.1719H31.2702Z" fill="black"/>
<path fill-rule="evenodd" clip-rule="evenodd" d="M25.6498 20.641H21.5898C21.1758 20.641 20.8398 20.305 20.8398 19.891C20.8398 19.477 21.1758 19.141 21.5898 19.141H25.6498C26.0638 19.141 26.3998 19.477 26.3998 19.891C26.3998 20.305 26.0638 20.641 25.6498 20.641Z" fill="black"/>
<path fill-rule="evenodd" clip-rule="evenodd" d="M31.27 25.6719C30.271 25.6719 29.457 24.8589 29.457 23.8599C29.457 22.8599 30.271 22.0459 31.27 22.0459H35.706C35.765 22.6549 35.8 23.2979 35.8 23.9999C35.8 24.5949 35.772 25.1439 35.73 25.6719H31.27ZM32.1602 23.7998C32.1602 24.2138 31.8242 24.5498 31.4102 24.5498C30.9962 24.5498 30.6602 24.2138 30.6602 23.7998C30.6602 23.3858 30.9962 23.0498 31.4102 23.0498C31.8242 23.0498 32.1602 23.3858 32.1602 23.7998Z" fill="black"/>
</svg>
