<svg width="152" height="145" viewBox="0 0 152 145" fill="none" xmlns="http://www.w3.org/2000/svg">
<g opacity="0.45">
<path d="M271.517 27.3142C271.467 28.8633 271.089 30.361 270.428 31.6317L164.057 236.014C163.129 237.789 161.717 238.999 160.128 239.379C158.538 239.759 156.902 239.279 155.575 238.043L3.03205 95.4294C2.37537 94.8163 1.81514 94.0352 1.3834 93.1308C0.951668 92.2264 0.656899 91.2165 0.515993 90.1589C0.375086 89.1013 0.390808 88.0167 0.562235 86.9672C0.733661 85.9178 1.05744 84.9241 1.51503 84.0429L107.872 -120.293C108.803 -122.069 110.22 -123.277 111.812 -123.652C113.404 -124.027 115.042 -123.539 116.367 -122.295L268.911 20.2452C269.755 21.0303 270.438 22.0908 270.893 23.3273C271.349 24.5639 271.564 25.9357 271.517 27.3142ZM0.915128 88.4622C0.871353 89.7273 1.06802 90.9865 1.48664 92.1211C1.90526 93.2558 2.53205 94.2285 3.30788 94.9476L155.858 237.506C157.078 238.646 158.585 239.091 160.049 238.744C161.513 238.397 162.815 237.286 163.671 235.653L270.028 31.2518C270.638 30.0866 270.985 28.7099 271.028 27.2864C271.068 26.022 270.87 24.7644 270.452 23.6305C270.033 22.4966 269.408 21.5233 268.635 20.8011L116.085 -121.785C114.865 -122.928 113.358 -123.374 111.893 -123.027C110.429 -122.68 109.127 -121.567 108.272 -119.932L1.91498 84.4506C1.30249 85.621 0.955233 87.0047 0.915128 88.4345L0.915128 88.4622Z" fill="#009518"/>
<path d="M272.322 35.2071C272.272 36.752 271.886 38.2434 271.212 39.4967L165.675 236.959C164.754 238.68 163.362 239.841 161.805 240.189C160.248 240.536 158.652 240.041 157.366 238.812L9.99469 97.2816C8.7172 96.0503 7.85483 94.189 7.59636 92.1053C7.33789 90.0216 7.70436 87.8853 8.61557 86.1638L114.18 -111.27C115.101 -112.979 116.485 -114.131 118.034 -114.478C119.583 -114.825 121.171 -114.338 122.454 -113.123L269.853 28.3789C270.656 29.1502 271.302 30.1789 271.734 31.3715C272.165 32.5641 272.367 33.8827 272.322 35.2071ZM7.98808 90.4812C7.94715 91.7012 8.13463 92.9154 8.53338 94.0129C8.93213 95.1103 9.5294 96.0558 10.2705 96.7628L157.649 238.265C158.827 239.399 160.292 239.859 161.722 239.542C163.152 239.226 164.43 238.16 165.275 236.579L270.833 39.1354C271.452 37.9856 271.804 36.6158 271.846 35.1979C271.89 33.9784 271.704 32.7637 271.307 31.6659C270.909 30.5681 270.312 29.6225 269.571 28.9163L122.199 -112.577C121.017 -113.694 119.555 -114.143 118.129 -113.828C116.703 -113.513 115.426 -112.458 114.573 -110.89L9.02241 86.5622C8.40422 87.7132 8.04954 89.0817 8.00186 90.4997L7.98808 90.4812Z" fill="#009518"/>
<path d="M273.139 43.1289C273.089 44.6713 272.698 46.1586 272.015 47.4L167.258 237.913C166.342 239.573 164.974 240.679 163.453 240.988C161.932 241.297 160.382 240.784 159.142 239.562L16.9486 99.1349C16.182 98.3765 15.566 97.3766 15.1547 96.223C14.7435 95.0694 14.5497 93.7977 14.5903 92.5198C14.6393 90.9758 15.0334 89.4874 15.7212 88.2487L120.472 -102.255C121.386 -103.918 122.755 -105.025 124.277 -105.332C125.799 -105.64 127.349 -105.123 128.588 -103.895L270.781 36.5138C271.548 37.271 272.165 38.2708 272.576 39.4247C272.988 40.5785 273.181 41.8508 273.139 43.1289ZM15.1075 92.5569C15.0693 93.7273 15.2462 94.8924 15.6226 95.9492C15.9991 97.0059 16.5634 97.9219 17.2658 98.6161L159.431 239.034C160.569 240.151 161.989 240.62 163.383 240.337C164.776 240.054 166.03 239.043 166.872 237.524L271.622 47.0109C272.249 45.8763 272.608 44.5136 272.649 43.1011C272.69 41.9302 272.514 40.764 272.138 39.7067C271.761 38.6494 271.195 37.7338 270.491 37.0419L128.298 -103.376C127.166 -104.5 125.749 -104.977 124.357 -104.703C122.964 -104.429 121.709 -103.426 120.865 -101.912L16.1143 88.6471C15.4933 89.7844 15.1424 91.1471 15.1075 92.5569Z" fill="#009518"/>
<path d="M273.964 51.0314C273.913 52.5739 273.511 54.0583 272.812 55.284L168.883 238.858C168.434 239.662 167.871 240.338 167.226 240.845C166.58 241.353 165.866 241.682 165.125 241.813C164.387 241.95 163.636 241.888 162.916 241.63C162.196 241.372 161.522 240.924 160.932 240.312L23.9177 100.987C23.324 100.389 22.8245 99.6378 22.4481 98.7782C22.0716 97.9186 21.8256 96.9673 21.7243 95.9792C21.623 94.9912 21.6684 93.9859 21.8579 93.0216C22.0473 92.0572 22.3771 91.1529 22.8282 90.3607L126.779 -93.2316C127.689 -94.8327 129.034 -95.8843 130.52 -96.1569C132.006 -96.4294 133.512 -95.9007 134.708 -94.6862L271.73 44.6572C272.457 45.3994 273.04 46.3665 273.429 47.4763C273.818 48.5861 274.001 49.8057 273.964 51.0314ZM22.1662 94.5762C22.1331 95.7002 22.3042 96.8181 22.6646 97.8335C23.025 98.8488 23.564 99.7309 24.2349 100.404L161.229 239.794C161.768 240.348 162.384 240.753 163.041 240.984C163.699 241.214 164.383 241.266 165.056 241.137C165.734 241.022 166.389 240.726 166.981 240.266C167.573 239.806 168.091 239.192 168.504 238.459L272.426 54.8856C273.064 53.7665 273.429 52.4114 273.474 51.0036C273.508 49.8796 273.337 48.7617 272.976 47.7464C272.616 46.731 272.077 45.8489 271.406 45.176L134.405 -94.1674C133.312 -95.2743 131.937 -95.7552 130.58 -95.5053C129.224 -95.2553 127.996 -94.2948 127.165 -92.8332L23.2144 90.7406C22.5779 91.8602 22.2121 93.215 22.1662 94.6225L22.1662 94.5762Z" fill="#009518"/>
<path d="M274.789 58.9434C274.74 60.4811 274.332 61.9592 273.623 63.1681L170.473 239.812C169.576 241.347 168.266 242.346 166.825 242.591C166.095 242.722 165.352 242.655 164.642 242.394C163.931 242.133 163.267 241.683 162.688 241.072L30.8861 102.84C29.74 101.629 28.9973 99.8582 28.8203 97.9138C28.6433 95.9694 29.0464 94.0099 29.9414 92.4636L133.092 -84.2079C133.994 -85.7559 135.316 -86.7592 136.768 -86.9972C138.22 -87.2353 139.683 -86.6885 140.836 -85.4772L272.678 52.81C273.367 53.5345 273.917 54.4685 274.284 55.5348C274.651 56.6012 274.824 57.7695 274.789 58.9434ZM29.2588 96.6791C29.2262 97.7536 29.3843 98.8231 29.72 99.7993C30.0558 100.775 30.5595 101.63 31.1895 102.294L163.025 240.553C163.545 241.101 164.141 241.506 164.777 241.744C165.414 241.983 166.079 242.05 166.735 241.943C167.391 241.836 168.024 241.557 168.599 241.122C169.174 240.686 169.68 240.103 170.086 239.404L273.237 62.7697C273.885 61.6678 274.257 60.3187 274.299 58.9156C274.335 57.8427 274.179 56.7737 273.845 55.7984C273.51 54.8232 273.006 53.9699 272.375 53.3103L140.539 -84.9584C140.019 -85.5063 139.425 -85.9112 138.788 -86.1501C138.152 -86.3889 137.487 -86.4569 136.831 -86.3502C136.176 -86.2435 135.542 -85.9642 134.967 -85.5283C134.391 -85.0923 133.885 -84.5083 133.478 -83.8095L30.2931 92.8249C29.6568 93.9326 29.295 95.2806 29.2588 96.6791Z" fill="#009518"/>
<path d="M275.593 66.8467C275.544 68.3849 275.125 69.8603 274.401 71.053L172.05 240.757C171.149 242.238 169.849 243.18 168.433 243.378C167.017 243.576 165.601 243.013 164.492 241.813L37.8281 104.638C37.1767 103.927 36.6579 103.022 36.3131 101.994C35.9683 100.966 35.807 99.8443 35.8422 98.7178C35.8896 97.1806 36.3056 95.7051 37.0282 94.5116L139.379 -75.1927C139.824 -75.9326 140.374 -76.5473 140.996 -77.0018C141.618 -77.4562 142.301 -77.7415 143.006 -77.8413C143.71 -77.9411 144.422 -77.8535 145.101 -77.5834C145.78 -77.3134 146.413 -76.8662 146.964 -76.2675L273.601 60.9265C274.252 61.6372 274.772 62.5424 275.118 63.5701C275.464 64.5978 275.627 65.7197 275.593 66.8467ZM36.3179 98.7456C36.289 99.7703 36.4378 100.79 36.7525 101.724C37.0673 102.658 37.5393 103.481 38.1315 104.128L164.803 241.322C165.809 242.398 167.089 242.899 168.368 242.717C169.646 242.535 170.82 241.685 171.636 240.35L274.021 70.6453C274.68 69.5603 275.06 68.218 275.104 66.8189C275.136 65.7936 274.989 64.7725 274.674 63.8376C274.359 62.9027 273.885 62.0802 273.29 61.4361L146.633 -75.7579C145.627 -76.8627 144.335 -77.3858 143.042 -77.2121C141.749 -77.0383 140.561 -76.1821 139.737 -74.8314L37.4074 94.9192C36.7486 96.0042 36.3688 97.3466 36.3248 98.7456L36.3179 98.7456Z" fill="#009518"/>
<path d="M276.423 74.7589C276.376 76.2955 275.952 77.7679 275.216 78.9466L173.666 241.702C173.226 242.413 172.686 243 172.077 243.428C171.467 243.856 170.8 244.116 170.115 244.195C169.43 244.279 168.74 244.18 168.084 243.903C167.428 243.626 166.82 243.178 166.294 242.582L44.7741 106.463C44.2464 105.876 43.8099 105.156 43.4896 104.342C43.1692 103.529 42.9714 102.638 42.9074 101.722C42.8433 100.805 42.9143 99.881 43.1163 99.0015C43.3183 98.122 43.6473 97.3047 44.0846 96.5961L145.697 -66.1688C146.59 -67.5943 147.867 -68.4871 149.248 -68.652C150.629 -68.8169 152.003 -68.2406 153.069 -67.0489L274.555 69.0703C275.175 69.7569 275.667 70.629 275.991 71.6168C276.316 72.6045 276.464 73.6806 276.423 74.7589ZM43.3951 100.812C43.3625 101.788 43.4988 102.761 43.7931 103.655C44.0874 104.549 44.5318 105.339 45.0914 105.963L166.605 242.082C167.079 242.619 167.628 243.023 168.22 243.273C168.812 243.523 169.435 243.612 170.052 243.537C170.672 243.467 171.276 243.232 171.828 242.845C172.379 242.459 172.868 241.928 173.266 241.285L274.837 78.5204C275.508 77.4568 275.896 76.1237 275.941 74.7311C275.974 73.7534 275.838 72.7786 275.543 71.8833C275.249 70.9879 274.804 70.1964 274.244 69.5706L152.758 -66.5486C151.792 -67.6285 150.547 -68.1508 149.295 -68.0015C148.043 -67.8522 146.886 -67.0435 146.077 -65.7519L44.5259 97.0131C43.844 98.0742 43.446 99.4114 43.3951 100.812Z" fill="#009518"/>
<path d="M277.241 82.6618C277.19 84.2001 276.753 85.6698 276 86.831L175.249 242.657C174.813 243.336 174.28 243.893 173.683 244.294C173.085 244.694 172.434 244.932 171.767 244.991C171.1 245.058 170.43 244.947 169.796 244.664C169.162 244.381 168.575 243.932 168.071 243.342L51.7569 108.298C51.2517 107.712 50.8376 106.997 50.5385 106.196C50.2393 105.394 50.0609 104.521 50.0135 103.627C49.9661 102.733 50.0506 101.834 50.2622 100.984C50.4738 100.134 50.8083 99.3477 51.2466 98.6715L151.997 -57.1541C152.883 -58.5217 154.135 -59.3618 155.481 -59.4904C156.827 -59.6189 158.155 -59.0253 159.176 -57.8397L275.483 77.2048C276.064 77.8761 276.525 78.7161 276.829 79.6614C277.134 80.6067 277.275 81.6327 277.241 82.6618ZM50.495 102.841C50.4627 103.772 50.5888 104.7 50.8636 105.556C51.1384 106.411 51.5547 107.172 52.0809 107.779L168.388 242.851C169.312 243.922 170.515 244.459 171.732 244.343C172.335 244.286 172.924 244.07 173.465 243.708C174.005 243.345 174.487 242.843 174.884 242.23L275.628 86.4048C276.311 85.3563 276.707 84.0262 276.752 82.634C276.784 81.7031 276.658 80.7746 276.383 79.9189C276.108 79.0633 275.692 78.303 275.166 77.6959L158.858 -57.3486C157.935 -58.4208 156.733 -58.9575 155.515 -58.8411C154.298 -58.7248 153.164 -57.9649 152.363 -56.7279L51.612 99.1347C50.9388 100.165 50.545 101.471 50.495 102.841Z" fill="#009518"/>
<path d="M278.056 90.5739C278.007 92.1113 277.558 93.5767 276.788 94.7153L176.844 243.601C176.407 244.257 175.876 244.789 175.284 245.166C174.692 245.543 174.05 245.758 173.396 245.797C172.092 245.884 170.815 245.275 169.845 244.102L58.7159 110.132C58.2328 109.55 57.8399 108.845 57.5596 108.058C57.2794 107.272 57.1174 106.419 57.0828 105.548C57.0482 104.677 57.1417 103.805 57.3581 102.983C57.5744 102.161 57.9093 101.404 58.3436 100.756L158.295 -48.1765C159.174 -49.4852 160.404 -50.2718 161.715 -50.3638C163.026 -50.4559 164.31 -49.8459 165.287 -48.6676L276.45 85.3485C276.988 86.0059 277.412 86.8155 277.689 87.719C277.967 88.6225 278.093 89.5975 278.056 90.5739ZM57.5644 104.934C57.5362 105.817 57.654 106.696 57.9091 107.51C58.1643 108.324 58.5505 109.052 59.04 109.641L170.176 243.611C170.61 244.14 171.118 244.548 171.671 244.811C172.224 245.073 172.81 245.185 173.396 245.139C174.573 245.053 175.676 244.343 176.464 243.166L276.45 94.2799C277.135 93.2574 277.537 91.9484 277.588 90.5739C277.619 89.6912 277.502 88.8103 277.247 87.9959C276.991 87.1814 276.604 86.4542 276.112 85.8674L164.963 -48.1765C164.082 -49.2386 162.924 -49.7882 161.743 -49.7048C160.561 -49.6215 159.453 -48.9119 158.66 -47.7318L58.6746 101.154C57.9907 102.204 57.5984 103.54 57.5644 104.934Z" fill="#009518"/>
<path d="M278.883 98.4772C278.83 100.013 278.373 101.475 277.593 102.6L178.442 244.593C178.009 245.207 177.49 245.7 176.915 246.044C176.34 246.387 175.72 246.574 175.091 246.594C174.459 246.625 173.829 246.488 173.237 246.188C172.645 245.889 172.103 245.435 171.643 244.853L65.6792 111.958C64.7555 110.784 64.2135 109.169 64.1709 107.462C64.1283 105.755 64.5885 104.095 65.4516 102.841L164.603 -39.1151C165.478 -40.3632 166.685 -41.0951 167.96 -41.1507C169.236 -41.2062 170.475 -40.581 171.409 -39.4116L277.366 93.4834C277.87 94.1208 278.267 94.8967 278.529 95.7584C278.791 96.62 278.911 97.5473 278.883 98.4772ZM64.6449 106.992C64.6191 107.83 64.7291 108.666 64.9672 109.442C65.2053 110.218 65.5658 110.915 66.024 111.485L171.967 244.38C172.385 244.905 172.876 245.314 173.412 245.581C173.949 245.848 174.519 245.969 175.091 245.937C175.66 245.913 176.219 245.737 176.737 245.418C177.254 245.1 177.719 244.646 178.104 244.084L277.235 102.155C277.938 101.145 278.351 99.8314 278.4 98.4494C278.426 97.6109 278.316 96.7747 278.078 95.9988C277.84 95.223 277.479 94.5259 277.021 93.956L171.078 -38.9113C170.239 -39.9621 169.124 -40.5237 167.978 -40.4734C166.832 -40.423 165.747 -39.7648 164.961 -38.6426L65.8102 103.286C65.1066 104.296 64.6936 105.61 64.6449 106.992Z" fill="#009518"/>
<path d="M279.722 106.389C279.674 107.928 279.202 109.387 278.398 110.484L180.047 245.52C179.178 246.707 177.995 247.385 176.756 247.404C175.517 247.423 174.323 246.782 173.434 245.622L72.6556 113.792C72.2163 113.218 71.8655 112.532 71.6236 111.776C71.3816 111.019 71.253 110.205 71.2454 109.382C71.2377 108.558 71.351 107.741 71.5788 106.976C71.8066 106.211 72.1444 105.515 72.5729 104.926L170.924 -30.0912C171.791 -31.2823 172.974 -31.9629 174.213 -31.9837C175.453 -32.0046 176.648 -31.3639 177.537 -30.2024L278.315 101.618C278.787 102.235 279.156 102.979 279.398 103.802C279.641 104.624 279.751 105.506 279.722 106.389ZM71.7316 109.058C71.7068 109.847 71.8064 110.635 72.0239 111.37C72.2413 112.104 72.5717 112.768 72.9935 113.319L173.772 245.149C174.571 246.186 175.642 246.757 176.753 246.738C177.863 246.718 178.923 246.111 179.702 245.047L278.046 110.03C278.772 109.037 279.197 107.716 279.239 106.325C279.264 105.535 279.164 104.747 278.947 104.013C278.73 103.278 278.399 102.614 277.977 102.063L177.171 -29.7391C176.373 -30.7757 175.301 -31.3466 174.191 -31.3275C173.08 -31.3084 172.02 -30.7009 171.241 -29.6372L72.9245 105.38C72.2033 106.366 71.7785 107.676 71.7316 109.058Z" fill="#009518"/>
<path d="M280.541 114.292C280.484 115.84 279.991 117.301 279.162 118.377L181.631 246.446C180.767 247.573 179.606 248.197 178.401 248.182C177.197 248.166 176.045 247.512 175.197 246.362L79.5975 115.617C79.1792 115.046 78.8488 114.371 78.6254 113.628C78.402 112.886 78.2899 112.092 78.2957 111.291C78.3015 110.49 78.4249 109.699 78.659 108.963C78.8931 108.226 79.2331 107.559 79.6596 107L177.211 -21.0771C178.073 -22.2067 179.233 -22.832 180.437 -22.8163C181.641 -22.8007 182.792 -22.1455 183.638 -20.9937L279.21 109.761C279.65 110.355 279.995 111.062 280.224 111.842C280.453 112.621 280.56 113.454 280.541 114.292ZM78.7907 111.114C78.7661 111.857 78.8543 112.599 79.0499 113.295C79.2455 113.991 79.5444 114.627 79.9285 115.163L175.549 245.908C176.304 246.938 177.332 247.525 178.408 247.541C179.484 247.556 180.521 247 181.293 245.992L278.837 117.905C279.572 116.943 280.007 115.641 280.051 114.264C280.074 113.518 279.983 112.775 279.784 112.078C279.585 111.382 279.281 110.748 278.893 110.215L183.293 -20.5305C182.538 -21.5578 181.511 -22.1429 180.437 -22.1585C179.363 -22.1742 178.327 -21.619 177.556 -20.6139L80.0044 107.473C79.2671 108.432 78.8325 109.736 78.7907 111.114Z" fill="#009518"/>
<path d="M281.364 122.195C281.323 123.742 280.827 125.205 279.985 126.262L183.22 247.372C182.796 247.903 182.298 248.317 181.755 248.589C181.212 248.861 180.634 248.986 180.055 248.956C179.477 248.935 178.907 248.761 178.379 248.443C177.852 248.125 177.376 247.67 176.979 247.103L86.5512 117.396C85.7569 116.251 85.3333 114.73 85.3734 113.167C85.4135 111.603 85.914 110.125 86.7649 109.057L183.51 -12.0438C184.368 -13.1114 185.505 -13.6802 186.674 -13.6264C187.843 -13.5727 188.948 -12.9006 189.75 -11.7565L280.178 117.951C280.575 118.518 280.885 119.185 281.088 119.913C281.292 120.642 281.386 121.417 281.364 122.195ZM85.8547 113.18C85.8307 113.879 85.9117 114.577 86.093 115.233C86.2743 115.889 86.5521 116.489 86.9097 116.997L177.338 246.677C177.691 247.19 178.117 247.601 178.591 247.888C179.065 248.174 179.577 248.33 180.096 248.345C180.613 248.37 181.128 248.257 181.612 248.014C182.096 247.771 182.539 247.402 182.916 246.927L279.661 125.78C280.035 125.318 280.338 124.761 280.551 124.14C280.764 123.52 280.883 122.85 280.902 122.167C280.928 121.468 280.848 120.769 280.666 120.113C280.485 119.457 280.206 118.857 279.847 118.35L189.426 -11.3582C188.714 -12.3633 187.738 -12.9526 186.706 -12.9994C185.674 -13.0462 184.67 -12.5466 183.909 -11.6083L87.0959 109.567C86.3431 110.503 85.8968 111.803 85.8547 113.18Z" fill="#009518"/>
<path d="M282.205 130.107C282.181 130.875 282.041 131.628 281.794 132.322C281.548 133.016 281.2 133.637 280.771 134.146L184.82 248.354C183.968 249.364 182.853 249.88 181.719 249.79C180.584 249.7 179.523 249.01 178.765 247.872L93.5157 119.276C93.1424 118.712 92.8555 118.056 92.6714 117.343C92.4873 116.63 92.4098 115.876 92.4431 115.123C92.4764 114.37 92.6199 113.633 92.8655 112.954C93.1111 112.276 93.4539 111.669 93.8743 111.169L189.826 -3.0479C190.68 -4.05446 191.794 -4.56754 192.928 -4.47559C194.062 -4.38363 195.123 -3.69409 195.88 -2.55686L281.123 126.002C281.873 127.124 282.262 128.6 282.205 130.107ZM92.9296 115.236C92.885 116.559 93.2265 117.852 93.8812 118.84L179.131 247.437C179.801 248.446 180.741 249.059 181.746 249.14C182.751 249.222 183.74 248.766 184.496 247.872L280.447 133.664C280.828 133.213 281.137 132.663 281.355 132.046C281.573 131.43 281.696 130.761 281.716 130.079C281.76 128.757 281.419 127.464 280.764 126.475L195.515 -2.13067C194.842 -3.1367 193.902 -3.74576 192.897 -3.82556C191.893 -3.90535 190.906 -3.44945 190.15 -2.55686L94.1983 111.651C93.8172 112.102 93.5082 112.652 93.2901 113.269C93.072 113.885 92.9494 114.555 92.9296 115.236Z" fill="#009518"/>
<path d="M283.038 138.047C283.012 138.819 282.868 139.576 282.614 140.269C282.36 140.963 282.002 141.578 281.562 142.077L186.404 249.346C185.983 249.813 185.498 250.165 184.976 250.379C184.454 250.594 183.906 250.668 183.363 250.596C182.818 250.536 182.288 250.331 181.803 249.994C181.318 249.657 180.887 249.194 180.536 248.632L100.478 121.102C99.8046 120.038 99.457 118.67 99.506 117.275C99.5298 116.502 99.6733 115.745 99.9274 115.051C100.181 114.357 100.541 113.742 100.982 113.245L196.14 5.97655C196.987 5.02551 198.079 4.56285 199.178 4.68956C200.277 4.81626 201.295 5.52203 202.008 6.65287L282.066 134.184C282.742 135.259 283.09 136.64 283.038 138.047ZM99.9887 117.303C99.9523 118.535 100.26 119.741 100.851 120.685L180.922 248.206C181.549 249.209 182.447 249.835 183.418 249.948C183.902 250.008 184.39 249.938 184.854 249.742C185.318 249.547 185.749 249.229 186.121 248.808L281.28 141.54C281.668 141.1 281.985 140.557 282.209 139.945C282.434 139.332 282.561 138.664 282.583 137.982C282.625 136.75 282.32 135.543 281.728 134.601L201.615 7.07906C200.988 6.08879 200.095 5.47108 199.131 5.36006C198.166 5.24904 197.208 5.65368 196.464 6.48611L101.306 113.745C100.915 114.184 100.597 114.727 100.37 115.339C100.144 115.951 100.014 116.62 99.9887 117.303Z" fill="#009518"/>
<path d="M283.868 145.922C283.842 146.696 283.692 147.455 283.429 148.145C283.166 148.836 282.796 149.442 282.344 149.924L187.992 250.262C187.577 250.706 187.101 251.035 186.59 251.229C186.08 251.423 185.546 251.478 185.02 251.393C184.494 251.313 183.985 251.094 183.522 250.749C183.06 250.404 182.652 249.94 182.324 249.382L107.424 122.926C107.097 122.367 106.856 121.727 106.713 121.042C106.571 120.357 106.531 119.641 106.595 118.935C106.659 118.229 106.826 117.547 107.087 116.929C107.347 116.31 107.697 115.766 108.114 115.329L202.424 14.9907C203.265 14.1015 204.334 13.695 205.397 13.8599C206.46 14.0247 207.431 14.7476 208.099 15.8709L282.992 142.318C283.597 143.339 283.908 144.618 283.868 145.922ZM107.038 119.359C107.002 120.505 107.273 121.63 107.804 122.528L182.703 248.975C182.992 249.465 183.35 249.874 183.758 250.178C184.165 250.481 184.612 250.674 185.075 250.744C185.538 250.818 186.008 250.768 186.457 250.596C186.905 250.424 187.324 250.134 187.689 249.744L282.04 149.414C282.438 148.99 282.763 148.456 282.993 147.849C283.224 147.242 283.355 146.575 283.378 145.894C283.415 144.748 283.143 143.624 282.613 142.725L207.713 16.2785C207.127 15.2912 206.273 14.6561 205.339 14.512C204.404 14.3679 203.466 14.7266 202.728 15.5095L108.383 115.811C107.982 116.238 107.655 116.776 107.423 117.388C107.19 118 107.059 118.673 107.038 119.359Z" fill="#009518"/>
<path d="M284.72 153.798C284.694 154.578 284.539 155.341 284.267 156.031C283.996 156.721 283.613 157.322 283.148 157.791L189.562 251.208C189.148 251.627 188.676 251.932 188.174 252.105C187.672 252.278 187.15 252.316 186.637 252.216C186.124 252.116 185.631 251.88 185.186 251.523C184.741 251.166 184.353 250.693 184.045 250.133L114.4 124.761C114.093 124.208 113.87 123.579 113.744 122.909C113.618 122.24 113.591 121.544 113.665 120.861C113.739 120.177 113.913 119.52 114.177 118.928C114.44 118.335 114.788 117.817 115.2 117.405L208.738 24.0155C209.152 23.5963 209.624 23.2914 210.126 23.1185C210.628 22.9455 211.15 22.9079 211.663 23.0078C212.176 23.1078 212.669 23.3432 213.114 23.7007C213.559 24.0581 213.946 24.5304 214.255 25.0902L283.941 150.462C284.477 151.422 284.752 152.599 284.72 153.798ZM114.111 121.371C114.084 122.427 114.328 123.463 114.8 124.307L184.5 249.744C185.049 250.727 185.866 251.377 186.771 251.551C187.676 251.724 188.596 251.408 189.327 250.671L282.845 157.29C283.255 156.885 283.592 156.36 283.831 155.755C284.07 155.151 284.204 154.481 284.224 153.798C284.252 152.738 284.008 151.698 283.534 150.851L213.827 25.4793C213.279 24.4964 212.462 23.8467 211.557 23.6729C210.651 23.4992 209.732 23.8157 209 24.5528L115.483 117.933C115.073 118.34 114.737 118.865 114.498 119.469C114.259 120.074 114.125 120.742 114.104 121.426L114.111 121.371Z" fill="#009518"/>
<path d="M285.565 161.738C285.543 162.524 285.385 163.292 285.102 163.98C284.819 164.669 284.421 165.259 283.937 165.703L191.192 252.163C190.364 252.931 189.343 253.227 188.352 252.988C187.361 252.748 186.481 251.992 185.903 250.884L121.361 126.587C121.078 126.04 120.877 125.422 120.771 124.771C120.665 124.119 120.656 123.446 120.743 122.789C120.831 122.133 121.014 121.506 121.282 120.945C121.55 120.383 121.898 119.899 122.306 119.518L215.051 33.0583C215.875 32.2817 216.894 31.9745 217.886 32.2036C218.878 32.4327 219.763 33.1795 220.347 34.2812L284.889 158.588C285.372 159.505 285.61 160.615 285.565 161.738ZM121.168 123.483C121.133 124.455 121.342 125.414 121.761 126.207L186.303 250.514C186.807 251.48 187.575 252.14 188.439 252.348C189.304 252.556 190.194 252.297 190.917 251.625L283.662 165.166C284.082 164.777 284.429 164.263 284.675 163.663C284.922 163.063 285.061 162.395 285.082 161.71C285.114 160.739 284.905 159.781 284.489 158.986L219.912 34.6796C219.409 33.7131 218.641 33.0536 217.776 32.8453C216.912 32.637 216.021 32.8968 215.299 33.5679L122.554 120.027C122.141 120.421 121.8 120.938 121.56 121.537C121.319 122.137 121.185 122.803 121.168 123.483Z" fill="#009518"/>
<path d="M286.415 169.649C286.388 170.439 286.221 171.209 285.927 171.894C285.633 172.579 285.221 173.16 284.726 173.587L192.78 253.116C191.957 253.825 190.958 254.067 190.002 253.789C189.046 253.511 188.21 252.736 187.678 251.634L128.314 128.411C128.051 127.866 127.871 127.256 127.784 126.617C127.697 125.978 127.704 125.322 127.806 124.687C127.908 124.052 128.102 123.45 128.377 122.915C128.653 122.381 129.004 121.925 129.41 121.574L221.356 42.0443C222.182 41.34 223.181 41.1025 224.137 41.3836C225.093 41.6647 225.927 42.4416 226.458 43.5452L285.829 166.768C286.24 167.624 286.445 168.631 286.415 169.649ZM128.197 125.539C128.17 126.427 128.348 127.304 128.707 128.05L188.078 251.273C188.539 252.229 189.265 252.901 190.095 253.141C190.924 253.381 191.791 253.169 192.505 252.551L284.464 173.04C284.894 172.667 285.251 172.162 285.505 171.565C285.759 170.969 285.904 170.299 285.926 169.612C285.955 168.724 285.776 167.846 285.415 167.101L226.052 43.8788C225.586 42.9267 224.86 42.2602 224.031 42.0242C223.202 41.7882 222.337 42.0019 221.625 42.6187L129.679 122.12C129.246 122.489 128.885 122.991 128.627 123.586C128.369 124.181 128.222 124.851 128.197 125.539Z" fill="#009518"/>
<path d="M287.284 177.552C287.258 178.351 287.084 179.128 286.779 179.814C286.473 180.5 286.044 181.073 285.532 181.48L194.408 254.061C193.591 254.71 192.616 254.897 191.696 254.583C190.776 254.269 189.986 253.478 189.498 252.384L135.285 130.236C135.044 129.694 134.884 129.093 134.816 128.468C134.748 127.843 134.773 127.206 134.889 126.594C135.005 125.981 135.21 125.406 135.492 124.901C135.775 124.395 136.128 123.97 136.534 123.649L227.679 51.059C228.498 50.4124 229.473 50.2258 230.394 50.5398C231.314 50.8538 232.105 51.6429 232.595 52.7359L286.808 174.893C287.156 175.698 287.321 176.622 287.284 177.552ZM135.272 127.605C135.245 128.409 135.396 129.205 135.706 129.894L189.891 252.004C190.313 252.951 190.996 253.636 191.792 253.908C192.588 254.181 193.431 254.019 194.139 253.459L285.284 180.915C285.728 180.565 286.101 180.072 286.367 179.48C286.633 178.887 286.785 178.215 286.808 177.524C286.835 176.718 286.684 175.918 286.374 175.227L232.189 53.0694C231.766 52.1241 231.082 51.4417 230.286 51.171C229.491 50.9002 228.648 51.0631 227.941 51.6241L136.782 124.214C136.34 124.566 135.971 125.061 135.707 125.653C135.443 126.245 135.294 126.916 135.272 127.605Z" fill="#009518"/>
<path d="M288.126 185.464C288.102 186.271 287.921 187.056 287.602 187.74C287.283 188.424 286.836 188.984 286.305 189.365L195.974 255.015C195.164 255.605 194.213 255.742 193.328 255.395C192.444 255.048 191.697 254.245 191.25 253.162L142.23 132.052C142.009 131.516 141.87 130.927 141.82 130.319C141.77 129.71 141.81 129.094 141.938 128.506C142.067 127.919 142.28 127.371 142.567 126.895C142.854 126.419 143.208 126.025 143.609 125.734L233.941 60.0829C234.75 59.4906 235.702 59.353 236.587 59.7002C237.472 60.0474 238.219 60.8512 238.664 61.9359L287.712 183.037C288.009 183.782 288.152 184.62 288.126 185.464ZM142.299 129.662C142.282 130.39 142.413 131.111 142.678 131.747L191.636 252.829C192.018 253.763 192.659 254.457 193.42 254.759C194.181 255.061 195 254.947 195.698 254.441L286.105 188.79C286.561 188.462 286.945 187.98 287.219 187.392C287.494 186.804 287.649 186.13 287.671 185.436C287.692 184.71 287.566 183.989 287.305 183.352L238.299 62.2694C237.917 61.3352 237.276 60.6415 236.515 60.3395C235.754 60.0376 234.936 60.1518 234.237 60.6574L143.906 126.308C143.442 126.628 143.049 127.107 142.767 127.695C142.485 128.284 142.324 128.963 142.299 129.662Z" fill="#009518"/>
<path d="M288.998 193.377C288.971 194.192 288.781 194.983 288.447 195.664C288.113 196.346 287.648 196.894 287.102 197.249L197.556 255.97C197.155 256.232 196.719 256.385 196.274 256.421C195.829 256.457 195.383 256.374 194.961 256.178C194.54 255.982 194.151 255.676 193.818 255.278C193.485 254.88 193.213 254.397 193.019 253.858L149.191 133.878C148.942 133.199 148.826 132.447 148.853 131.691C148.88 130.875 149.07 130.083 149.404 129.4C149.737 128.717 150.202 128.167 150.749 127.809L240.288 69.098C241.095 68.5696 242.024 68.4923 242.873 68.883C243.723 69.2737 244.422 70.1006 244.818 71.1826L288.653 191.19C288.899 191.87 289.018 192.621 288.998 193.377ZM149.342 131.719C149.323 132.359 149.423 132.996 149.632 133.572L193.467 253.598C193.807 254.523 194.405 255.229 195.131 255.562C195.858 255.896 196.653 255.829 197.342 255.377L286.888 196.666C287.354 196.358 287.75 195.888 288.035 195.305C288.32 194.721 288.484 194.046 288.508 193.349C288.526 192.708 288.424 192.071 288.212 191.496L244.377 71.4883C244.04 70.5628 243.443 69.8548 242.718 69.5196C241.993 69.1844 241.198 69.2493 240.508 69.7002L150.956 128.402C150.488 128.705 150.09 129.175 149.806 129.759C149.521 130.344 149.361 131.021 149.342 131.719Z" fill="#009518"/>
</g>
</svg>
